<svg id="_x31__x2C_5" enable-background="new 0 0 36 36" height="512" viewBox="0 0 36 36" width="512" xmlns="http://www.w3.org/2000/svg"><path d="m4.167 27.623c0-6.917-3.583-11.667-3.583-15s1.916-10.333 17.249-10.333 17.583 9.417 17.583 13.083c.001 17.167-31.249 24.5-31.249 12.25z" fill="#efefef"/><path d="m3.5 6c-.827 0-1.5-.673-1.5-1.5s.673-1.5 1.5-1.5 1.5.673 1.5 1.5-.673 1.5-1.5 1.5zm0-2c-.275 0-.5.224-.5.5s.225.5.5.5.5-.224.5-.5-.225-.5-.5-.5z" fill="#a4afc1"/><path d="m6.75 6.75h7.5v7.5h-7.5z" fill="#f3f3f1"/><path d="m21.995 14.995h6.01v6.01h-6.01z" fill="#2fdf84" transform="matrix(.707 -.707 .707 .707 -5.406 22.95)"/><circle cx="10.5" cy="25.5" fill="#f3f3f1" r="3.75"/><path d="m23 18 3.125-3.125-1.125-1.125-4.25 4.25 4.25 4.25 1.125-1.125z" fill="#00b871"/><path d="m6.75 6.75h2.25v7.5h-2.25z" fill="#d5dbe1"/><path d="m9 25.5c0-1.676 1.107-3.079 2.625-3.559-.357-.113-.73-.191-1.125-.191-2.071 0-3.75 1.679-3.75 3.75s1.679 3.75 3.75 3.75c.395 0 .768-.078 1.125-.191-1.518-.48-2.625-1.883-2.625-3.559z" fill="#d5dbe1"/><path d="m14.25 15h-7.5c-.414 0-.75-.336-.75-.75v-7.5c0-.414.336-.75.75-.75h7.5c.414 0 .75.336.75.75v7.5c0 .414-.336.75-.75.75zm-6.75-1.5h6v-6h-6z"/><path d="m25 23c-.192 0-.384-.073-.53-.22l-4.25-4.25c-.293-.293-.293-.768 0-1.061l4.25-4.25c.293-.293.768-.293 1.061 0l4.25 4.25c.293.293.293.768 0 1.061l-4.25 4.25c-.147.147-.339.22-.531.22zm-3.189-5 3.189 3.189 3.189-3.189-3.189-3.189z"/><path d="m10.5 30c-2.481 0-4.5-2.019-4.5-4.5s2.019-4.5 4.5-4.5 4.5 2.019 4.5 4.5-2.019 4.5-4.5 4.5zm0-7.5c-1.654 0-3 1.346-3 3s1.346 3 3 3 3-1.346 3-3-1.346-3-3-3z"/><path d="m25.75 13.5h-1.5v-2.25h-9.75v-1.5h10.5c.414 0 .75.336.75.75z"/><path d="m25 26.25h-10.5v-1.5h9.75v-2.25h1.5v3c0 .414-.336.75-.75.75z"/></svg>