<svg id="_x31__x2C_5" enable-background="new 0 0 36 36" height="512" viewBox="0 0 36 36" width="512" xmlns="http://www.w3.org/2000/svg"><path d="m27.623 4.167c-6.917 0-11.667-3.583-15-3.583s-10.333 1.916-10.333 17.249 9.417 17.583 13.083 17.583c17.167.001 24.5-31.249 12.25-31.249z" fill="#efefef"/><path d="m6.5 4c-.827 0-1.5-.673-1.5-1.5s.673-1.5 1.5-1.5 1.5.673 1.5 1.5-.673 1.5-1.5 1.5zm0-2c-.276 0-.5.225-.5.5s.224.5.5.5.5-.225.5-.5-.224-.5-.5-.5z" fill="#a4afc1"/><path d="m27.25 28.25h-18.5c-1.105 0-2-.895-2-2v-15h22.5v15c0 1.105-.895 2-2 2z" fill="#f3f3f1"/><path d="m6.75 11.25h22.5v-1.5c0-1.105-.895-2-2-2h-18.5c-1.105 0-2 .895-2 2z" fill="#2fdf84"/><circle cx="22" cy="20" fill="#2fdf84" r="2.25"/><path d="m11 7.75h-2.25c-1.105 0-2 .895-2 2v1.5h2.25v-1.5c0-1.105.895-2 2-2z" fill="#00b871"/><path d="m22 20c0-.831.455-1.548 1.125-1.938-.332-.193-.713-.312-1.125-.312-1.243 0-2.25 1.007-2.25 2.25s1.007 2.25 2.25 2.25c.412 0 .793-.119 1.125-.312-.67-.39-1.125-1.107-1.125-1.938z" fill="#00b871"/><path d="m9 26.25v-15h-2.25v15c0 1.105.895 2 2 2h2.25c-1.105 0-2-.895-2-2z" fill="#d5dbe1"/><path d="m22 23c-1.654 0-3-1.346-3-3s1.346-3 3-3 3 1.346 3 3-1.346 3-3 3zm0-4.5c-.827 0-1.5.673-1.5 1.5s.673 1.5 1.5 1.5 1.5-.673 1.5-1.5-.673-1.5-1.5-1.5z"/><path d="m13.5 22h-1.5v-1.75c0-.689.561-1.25 1.25-1.25h7v1.5h-6.75z"/><path d="m14 19h1.5v3h-1.5z"/><path d="m27.25 29h-18.5c-1.517 0-2.75-1.233-2.75-2.75v-16.5c0-1.517 1.233-2.75 2.75-2.75h18.5c1.517 0 2.75 1.233 2.75 2.75v16.5c0 1.517-1.233 2.75-2.75 2.75zm-18.5-20.5c-.689 0-1.25.561-1.25 1.25v16.5c0 .689.561 1.25 1.25 1.25h18.5c.689 0 1.25-.561 1.25-1.25v-16.5c0-.689-.561-1.25-1.25-1.25z"/><path d="m6.75 10.5h22.5v1.5h-22.5z"/></svg>