<svg id="_x31__x2C_5" enable-background="new 0 0 36 36" height="512" viewBox="0 0 36 36" width="512" xmlns="http://www.w3.org/2000/svg"><path d="m31.833 27.623c0-6.917 3.583-11.667 3.583-15s-1.916-10.333-17.249-10.333-17.584 9.417-17.584 13.083c0 17.167 31.25 24.5 31.25 12.25z" fill="#efefef"/><g fill="#a4afc1"><path d="m28.467 2.467h1v2h-1z" transform="matrix(.707 -.707 .707 .707 6.036 21.502)"/><path d="m32.533 6.533h1v2h-1z" transform="matrix(.707 -.707 .707 .707 4.352 25.569)"/><path d="m31.856 2.967h2v1h-2z" transform="matrix(.707 -.707 .707 .707 7.172 24.248)"/></g><path d="m27.25 27.25h-18.5c-1.105 0-2-.895-2-2v-15h22.5v15c0 1.105-.895 2-2 2z" fill="#f3f3f1"/><path d="m6.75 10.25h22.5v-1.5c0-1.105-.895-2-2-2h-18.5c-1.105 0-2 .895-2 2z" fill="#2fdf84"/><path d="m11 6.75h-2.25c-1.105 0-2 .895-2 2v1.5h2.25v-1.5c0-1.105.895-2 2-2z" fill="#00b871"/><path d="m9 25.25v-15h-2.25v15c0 1.105.895 2 2 2h2.25c-1.105 0-2-.895-2-2z" fill="#d5dbe1"/><path d="m27.25 28h-18.5c-1.517 0-2.75-1.233-2.75-2.75v-16.5c0-1.517 1.233-2.75 2.75-2.75h18.5c1.517 0 2.75 1.233 2.75 2.75v16.5c0 1.517-1.233 2.75-2.75 2.75zm-18.5-20.5c-.689 0-1.25.561-1.25 1.25v16.5c0 .689.561 1.25 1.25 1.25h18.5c.689 0 1.25-.561 1.25-1.25v-16.5c0-.689-.561-1.25-1.25-1.25z"/><path d="m6.75 9.5h22.5v1.5h-22.5z"/><path d="m18.75 25h-1.5v-5.189l-5.03-5.03 1.061-1.061 5.25 5.25c.141.141.22.331.22.53v5.5z"/><path d="m13 18h-1.5v-4.25c0-.414.336-.75.75-.75h4.25v1.5h-3.5z"/><path d="m19.327 15.125h4.596v1.5h-4.596z" transform="matrix(.707 -.707 .707 .707 -4.892 19.941)"/><path d="m24.5 18h-1.5v-3.5h-3.5v-1.5h4.25c.414 0 .75.336.75.75z"/></svg>