<svg id="_x31__x2C_5" enable-background="new 0 0 36 36" height="512" viewBox="0 0 36 36" width="512" xmlns="http://www.w3.org/2000/svg"><path d="m31.833 8.377c0 6.917 3.583 11.667 3.583 15s-1.916 10.333-17.249 10.333-17.584-9.417-17.584-13.083c0-17.167 31.25-24.5 31.25-12.25z" fill="#efefef"/><path d="m31.5 5c-.827 0-1.5-.673-1.5-1.5s.673-1.5 1.5-1.5 1.5.673 1.5 1.5-.673 1.5-1.5 1.5zm0-2c-.275 0-.5.224-.5.5s.225.5.5.5.5-.224.5-.5-.225-.5-.5-.5z" fill="#a4afc1"/><path d="m28.25 25.25h-20.5c-.552 0-1-.448-1-1v-12.5c0-.552.448-1 1-1h20.5c.552 0 1 .448 1 1v12.5c0 .552-.448 1-1 1z" fill="#f3f3f1"/><g fill="#2fdf84"><path d="m23.5 10.25c-.967 0-1.75-.784-1.75-1.75 0-.966.784-1.75 1.75-1.75.966 0 1.75.784 1.75 1.75 0 .966-.784 1.75-1.75 1.75z"/><path d="m13.25 17.25h-1.5c-.552 0-1-.448-1-1v-1.5c0-.552.448-1 1-1h1.5c.552 0 1 .448 1 1v1.5c0 .552-.448 1-1 1z"/><path d="m12.5 10.25c-.967 0-1.75-.784-1.75-1.75 0-.966.784-1.75 1.75-1.75.966 0 1.75.784 1.75 1.75 0 .966-.784 1.75-1.75 1.75z"/><path d="m24.25 17.25h-1.5c-.552 0-1-.448-1-1v-1.5c0-.552.448-1 1-1h1.5c.552 0 1 .448 1 1v1.5c0 .552-.448 1-1 1z"/></g><path d="m24 8.5c0-.536.246-1.009.625-1.33-.305-.258-.694-.42-1.125-.42-.966 0-1.75.784-1.75 1.75s.784 1.75 1.75 1.75c.431 0 .82-.162 1.125-.42-.379-.321-.625-.794-.625-1.33z" fill="#00b871"/><path d="m13 16.25v-1.5c0-.419.259-.776.625-.924-.116-.047-.242-.076-.375-.076h-1.5c-.552 0-1 .448-1 1v1.5c0 .552.448 1 1 1h1.5c.133 0 .259-.029.375-.076-.366-.148-.625-.505-.625-.924z" fill="#00b871"/><path d="m13 8.5c0-.536.246-1.009.625-1.33-.305-.258-.694-.42-1.125-.42-.966 0-1.75.784-1.75 1.75s.784 1.75 1.75 1.75c.431 0 .82-.162 1.125-.42-.379-.321-.625-.794-.625-1.33z" fill="#00b871"/><path d="m24 16.25v-1.5c0-.419.259-.776.625-.924-.116-.047-.242-.076-.375-.076h-1.5c-.552 0-1 .448-1 1v1.5c0 .552.448 1 1 1h1.5c.133 0 .259-.029.375-.076-.366-.148-.625-.505-.625-.924z" fill="#00b871"/><path d="m9 24.25v-12.5c0-.552.448-1 1-1h-2.25c-.552 0-1 .448-1 1v12.5c0 .552.448 1 1 1h2.25c-.552 0-1-.448-1-1z" fill="#d5dbe1"/><path d="m28.25 26h-20.5c-.965 0-1.75-.785-1.75-1.75v-12.5c0-.965.785-1.75 1.75-1.75h.25v1.5h-.25c-.136 0-.25.114-.25.25v12.5c0 .136.114.25.25.25h20.5c.136 0 .25-.114.25-.25v-12.5c0-.136-.114-.25-.25-.25h-.25v-1.5h.25c.965 0 1.75.785 1.75 1.75v12.5c0 .965-.785 1.75-1.75 1.75z"/><path d="m17.25 25.25h1.5v4h-1.5z"/><path d="m23.5 11c-1.379 0-2.5-1.122-2.5-2.5s1.121-2.5 2.5-2.5 2.5 1.122 2.5 2.5-1.121 2.5-2.5 2.5zm0-3.5c-.552 0-1 .449-1 1s.448 1 1 1 1-.449 1-1-.448-1-1-1z"/><path d="m13.25 18h-1.5c-.965 0-1.75-.785-1.75-1.75v-1.5c0-.965.785-1.75 1.75-1.75h1.5c.965 0 1.75.785 1.75 1.75v1.5c0 .965-.785 1.75-1.75 1.75zm-1.5-3.5c-.138 0-.25.112-.25.25v1.5c0 .138.112.25.25.25h1.5c.138 0 .25-.112.25-.25v-1.5c0-.138-.112-.25-.25-.25z"/><path d="m12.5 11c-1.379 0-2.5-1.122-2.5-2.5s1.121-2.5 2.5-2.5 2.5 1.122 2.5 2.5-1.121 2.5-2.5 2.5zm0-3.5c-.552 0-1 .449-1 1s.448 1 1 1 1-.449 1-1-.448-1-1-1z"/><path d="m24.25 18h-1.5c-.965 0-1.75-.785-1.75-1.75v-1.5c0-.965.785-1.75 1.75-1.75h1.5c.965 0 1.75.785 1.75 1.75v1.5c0 .965-.785 1.75-1.75 1.75zm-1.5-3.5c-.138 0-.25.112-.25.25v1.5c0 .138.112.25.25.25h1.5c.138 0 .25-.112.25-.25v-1.5c0-.138-.112-.25-.25-.25z"/><path d="m14.5 7.75h7v1.5h-7z"/><path d="m17.25 8.5h1.5v7h-1.5z"/><path d="m14.5 14.75h7v1.5h-7z"/><path d="m13 28.5h10v1.5h-10z"/></svg>