<svg id="_x31__x2C_5" enable-background="new 0 0 36 36" height="512" viewBox="0 0 36 36" width="512" xmlns="http://www.w3.org/2000/svg"><path d="m31.833 27.623c0-6.917 3.583-11.667 3.583-15s-1.916-10.333-17.249-10.333-17.584 9.417-17.584 13.083c0 17.167 31.25 24.5 31.25 12.25z" fill="#efefef"/><g fill="#a4afc1"><path d="m28.467 1.967h1v2h-1z" transform="matrix(.707 -.707 .707 .707 6.386 21.352)"/><path d="m32.533 6.033h1v2h-1z" transform="matrix(.707 -.707 .707 .707 4.702 25.418)"/><path d="m31.857 2.467h2v1h-2z" transform="matrix(.707 -.707 .707 .707 7.526 24.102)"/></g><path d="m28.25 25.25h-20.5c-.552 0-1-.448-1-1v-12.5c0-.552.448-1 1-1h20.5c.552 0 1 .448 1 1v12.5c0 .552-.448 1-1 1z" fill="#f3f3f1"/><circle cx="25" cy="11.5" fill="#2fdf84" r="2.75"/><path d="m11.804 21.25c-1.137 0-2.054-.871-2.054-1.95s.918-1.95 2.054-1.95h.037c.219-1.473 1.548-2.6 3.159-2.6 1.278 0 2.383.711 2.89 1.742 1.319.069 2.36 1.105 2.36 2.375 0 1.317-1.123 2.383-2.511 2.383z" fill="#2fdf84"/><path d="m24.5 11.5c0-1.117.669-2.074 1.625-2.504-.344-.155-.723-.246-1.125-.246-1.519 0-2.75 1.231-2.75 2.75s1.231 2.75 2.75 2.75c.402 0 .781-.091 1.125-.246-.956-.43-1.625-1.387-1.625-2.504z" fill="#00b871"/><path d="m12 19.3c0-1.079.918-1.95 2.054-1.95h.037c.165-1.107.956-2.018 2.023-2.403-.348-.123-.721-.197-1.114-.197-1.612 0-2.94 1.127-3.159 2.6h-.037c-1.137 0-2.054.871-2.054 1.95s.918 1.95 2.054 1.95h2.25c-1.136 0-2.054-.871-2.054-1.95z" fill="#00b871"/><path d="m9 24.25v-12.5c0-.552.448-1 1-1h-2.25c-.552 0-1 .448-1 1v12.5c0 .552.448 1 1 1h2.25c-.552 0-1-.448-1-1z" fill="#d5dbe1"/><path d="m28.25 26h-20.5c-.965 0-1.75-.785-1.75-1.75v-12.5c0-.965.785-1.75 1.75-1.75h9.25v1.5h-9.25c-.136 0-.25.114-.25.25v12.5c0 .136.114.25.25.25h20.5c.136 0 .25-.114.25-.25v-6.25h1.5v6.25c0 .965-.785 1.75-1.75 1.75z"/><path d="m17.25 25.25h1.5v4h-1.5z"/><path d="m25 15c-1.93 0-3.5-1.57-3.5-3.5s1.57-3.5 3.5-3.5 3.5 1.57 3.5 3.5-1.57 3.5-3.5 3.5zm0-5.5c-1.103 0-2 .897-2 2s.897 2 2 2 2-.897 2-2-.897-2-2-2z"/><path d="m24.25 13.5h1.5v3.5h-1.5z"/><path d="m24.25 6h1.5v3.5h-1.5z"/><path d="m26.505 8.88h3.62v1.499h-3.62z" transform="matrix(.882 -.472 .472 .882 -1.195 14.489)"/><path d="m19.875 12.62h3.62v1.499h-3.62z" transform="matrix(.882 -.472 .472 .882 -3.742 11.805)"/><path d="m20.935 7.82h1.499v3.62h-1.499z" transform="matrix(.472 -.882 .882 .472 2.968 24.212)"/><path d="m27.565 11.56h1.499v3.62h-1.499z" transform="matrix(.472 -.882 .882 .472 3.173 32.035)"/><path d="m17.739 22h-5.935c-1.546 0-2.804-1.211-2.804-2.7 0-1.302.961-2.391 2.236-2.645.504-1.549 2.026-2.655 3.764-2.655 1.371 0 2.645.691 3.354 1.793 1.514.273 2.646 1.552 2.646 3.073 0 1.728-1.463 3.134-3.261 3.134zm-2.739-6.5c-1.212 0-2.251.843-2.417 1.96-.055.367-.37.64-.742.64-.756 0-1.341.538-1.341 1.2s.585 1.2 1.305 1.2h5.935c.971 0 1.761-.732 1.761-1.634 0-.862-.725-1.576-1.649-1.625-.271-.015-.514-.174-.634-.418-.397-.803-1.267-1.323-2.218-1.323z"/><path d="m13 28.5h10v1.5h-10z"/></svg>