<svg id="_x31__x2C_5" enable-background="new 0 0 36 36" height="512" viewBox="0 0 36 36" width="512" xmlns="http://www.w3.org/2000/svg"><path d="m4.167 8.377c0 6.917-3.583 11.667-3.583 15s1.916 10.333 17.249 10.333 17.583-9.417 17.583-13.083c.001-17.167-31.249-24.5-31.249-12.25z" fill="#efefef"/><g fill="#a4afc1"><path d="m31.857 3.467h2v1h-2z" transform="matrix(.707 -.707 .707 .707 6.819 24.395)"/><path d="m32.533 7.033h1v2h-1z" transform="matrix(.707 -.707 .707 .707 3.995 25.711)"/><path d="m28.467 2.967h1v2h-1z" transform="matrix(.707 -.707 .707 .707 5.679 21.645)"/></g><path d="m28.25 25.25h-20.5c-.552 0-1-.448-1-1v-12.5c0-.552.448-1 1-1h20.5c.552 0 1 .448 1 1v12.5c0 .552-.448 1-1 1z" fill="#f3f3f1"/><path d="m9 24.25v-12.5c0-.552.448-1 1-1h-2.25c-.552 0-1 .448-1 1v12.5c0 .552.448 1 1 1h2.25c-.552 0-1-.448-1-1z" fill="#d5dbe1"/><path d="m15 6h1.5v12h-1.5z"/><path d="m19.5 6h1.5v12h-1.5z"/><path d="m12 9h12v1.5h-12z"/><path d="m12 13.5h12v1.5h-12z"/><path d="m28.25 26h-20.5c-.965 0-1.75-.785-1.75-1.75v-12.5c0-.965.785-1.75 1.75-1.75h2.25v1.5h-2.25c-.136 0-.25.114-.25.25v12.5c0 .136.114.25.25.25h20.5c.136 0 .25-.114.25-.25v-12.5c0-.136-.114-.25-.25-.25h-2.25v-1.5h2.25c.965 0 1.75.785 1.75 1.75v12.5c0 .965-.785 1.75-1.75 1.75z"/><path d="m17.25 25.25h1.5v4h-1.5z"/><path d="m13 28.5h10v1.5h-10z"/></svg>