<svg id="_x31__x2C_5" enable-background="new 0 0 36 36" height="512" viewBox="0 0 36 36" width="512" xmlns="http://www.w3.org/2000/svg"><path d="m8.377 31.833c6.917 0 11.667 3.583 15 3.583s10.333-1.916 10.333-17.249-9.417-17.584-13.083-17.584c-17.167 0-24.5 31.25-12.25 31.25z" fill="#efefef"/><g fill="#a4afc1"><path d="m7.033 2.467h2v1h-2z" transform="matrix(.707 -.707 .707 .707 .255 6.549)"/><path d="m2.967 6.533h2v1h-2z" transform="matrix(.707 -.707 .707 .707 -3.811 4.865)"/><path d="m3.644 1.967h1v2h-1z" transform="matrix(.707 -.707 .707 .707 -.884 3.799)"/></g><path d="m28.25 25.25h-20.5c-.552 0-1-.448-1-1v-12.5c0-.552.448-1 1-1h20.5c.552 0 1 .448 1 1v12.5c0 .552-.448 1-1 1z" fill="#f3f3f1"/><path d="m9 24.25v-12.5c0-.552.448-1 1-1h-2.25c-.552 0-1 .448-1 1v12.5c0 .552.448 1 1 1h2.25c-.552 0-1-.448-1-1z" fill="#d5dbe1"/><path d="m28.25 26h-20.5c-.965 0-1.75-.785-1.75-1.75v-12.5c0-.965.785-1.75 1.75-1.75h1.25v1.5h-1.25c-.136 0-.25.114-.25.25v12.5c0 .136.114.25.25.25h20.5c.136 0 .25-.114.25-.25v-12.5c0-.136-.114-.25-.25-.25h-3.25v-1.5h3.25c.965 0 1.75.785 1.75 1.75v12.5c0 .965-.785 1.75-1.75 1.75z"/><path d="m17.25 25.25h1.5v4h-1.5z"/><path d="m17.742 15.4c-.805 0-1.605-.312-2.217-.926l-3.107-3.126c-.591-.585-.918-1.373-.918-2.214s.327-1.629.922-2.219c1.143-1.17 3.236-1.185 4.423.003l.533.535-1.063 1.059-.533-.535c-.613-.615-1.702-.614-2.296-.005-.316.314-.486.724-.486 1.162s.17.848.479 1.154l3.11 3.129c.594.597 1.532.645 2.184.11l.951 1.16c-.581.477-1.283.713-1.982.713z"/><path d="m21.368 19c-.84 0-1.627-.328-2.216-.926l-.512-.514 1.063-1.059.515.517c.615.623 1.688.62 2.298.003.314-.312.484-.722.484-1.16s-.17-.848-.479-1.154l-3.11-3.129c-.574-.576-1.568-.621-2.181-.113l-.957-1.154c1.187-.983 3.099-.896 4.201.21l3.107 3.126c.591.586.918 1.374.918 2.215s-.327 1.629-.922 2.219c-.582.591-1.369.919-2.209.919z"/><path d="m13 28.5h10v1.5h-10z"/></svg>