<svg id="_x31__x2C_5" enable-background="new 0 0 36 36" height="512" viewBox="0 0 36 36" width="512" xmlns="http://www.w3.org/2000/svg"><path d="m31.833 8.377c0 6.917 3.583 11.667 3.583 15s-1.916 10.333-17.249 10.333-17.584-9.417-17.584-13.083c0-17.167 31.25-24.5 31.25-12.25z" fill="#efefef"/><path d="m25.5 5c-.827 0-1.5-.673-1.5-1.5s.673-1.5 1.5-1.5 1.5.673 1.5 1.5-.673 1.5-1.5 1.5zm0-2c-.276 0-.5.225-.5.5s.224.5.5.5.5-.225.5-.5-.224-.5-.5-.5z" fill="#a4afc1"/><path d="m28.25 23.25h-20.5c-.552 0-1-.448-1-1v-12.5c0-.552.448-1 1-1h20.5c.552 0 1 .448 1 1v12.5c0 .552-.448 1-1 1z" fill="#f3f3f1"/><path d="m9 22.25v-12.5c0-.552.448-1 1-1h-2.25c-.552 0-1 .448-1 1v12.5c0 .552.448 1 1 1h2.25c-.552 0-1-.448-1-1z" fill="#d5dbe1"/><path d="m28.25 24h-20.5c-.965 0-1.75-.785-1.75-1.75v-12.5c0-.965.785-1.75 1.75-1.75h20.5c.965 0 1.75.785 1.75 1.75v12.5c0 .965-.785 1.75-1.75 1.75zm-20.5-14.5c-.138 0-.25.112-.25.25v12.5c0 .138.112.25.25.25h20.5c.138 0 .25-.112.25-.25v-12.5c0-.138-.112-.25-.25-.25z"/><path d="m17.25 23.25h1.5v4h-1.5z"/><path d="m23.5 15.25h2.5v1.5h-2.5z"/><path d="m26 19h-2c-.689 0-1.25-.561-1.25-1.25v-3.5c0-.689.561-1.25 1.25-1.25h2v1.5h-1.75v3h1.75z"/><path d="m14.5 13h1.5v6h-1.5z"/><path d="m13 19h-2.25c-.414 0-.75-.336-.75-.75v-5.25h1.5v4.5h1.5z"/><path d="m19.5 19c-.333 0-.625-.219-.72-.538l-1.461-4.97 1.439-.423.742 2.522.742-2.522 1.439.423-1.461 4.97c-.095.319-.387.538-.72.538z"/><path d="m13 26.5h10v1.5h-10z"/></svg>