<svg id="_x31__x2C_5" enable-background="new 0 0 36 36" height="512" viewBox="0 0 36 36" width="512" xmlns="http://www.w3.org/2000/svg"><path d="m8.377 31.833c6.917 0 11.667 3.583 15 3.583s10.333-1.916 10.333-17.249-9.417-17.584-13.083-17.584c-17.167 0-24.5 31.25-12.25 31.25z" fill="#efefef"/><path d="m3.5 6c-.827 0-1.5-.673-1.5-1.5s.673-1.5 1.5-1.5 1.5.673 1.5 1.5-.673 1.5-1.5 1.5zm0-2c-.275 0-.5.225-.5.5s.225.5.5.5.5-.225.5-.5-.225-.5-.5-.5z" fill="#a4afc1"/><path d="m28.25 25.25h-20.5c-.552 0-1-.448-1-1v-12.5c0-.552.448-1 1-1h20.5c.552 0 1 .448 1 1v12.5c0 .552-.448 1-1 1z" fill="#f3f3f1"/><path d="m9 24.25v-12.5c0-.552.448-1 1-1h-2.25c-.552 0-1 .448-1 1v12.5c0 .552.448 1 1 1h2.25c-.552 0-1-.448-1-1z" fill="#d5dbe1"/><path d="m21.736 11.656-3.736-3.832-3.736 3.832-1.074-1.047 4.273-4.383c.283-.289.791-.289 1.074 0l4.273 4.383z"/><path d="m20.063 16.946h1.5v2.686h-1.5z" transform="matrix(.716 -.698 .698 .716 -6.856 19.725)"/><path d="m14.78 19.78-1.06-1.06 3.53-3.53v-8.19h1.5v8.5c0 .199-.079.39-.22.53z"/><path d="m28.25 26h-20.5c-.965 0-1.75-.785-1.75-1.75v-12.5c0-.965.785-1.75 1.75-1.75h3.25v1.5h-3.25c-.136 0-.25.114-.25.25v12.5c0 .136.114.25.25.25h20.5c.136 0 .25-.114.25-.25v-12.5c0-.136-.114-.25-.25-.25h-3.25v-1.5h3.25c.965 0 1.75.785 1.75 1.75v12.5c0 .965-.785 1.75-1.75 1.75z"/><path d="m17.25 25.25h1.5v4h-1.5z"/><path d="m13 28.5h10v1.5h-10z"/></svg>