<svg id="_x31__x2C_5" enable-background="new 0 0 36 36" height="512" viewBox="0 0 36 36" width="512" xmlns="http://www.w3.org/2000/svg"><path d="m27.623 4.167c-6.917 0-11.667-3.583-15-3.583s-10.333 1.916-10.333 17.249 9.417 17.583 13.083 17.583c17.167.001 24.5-31.249 12.25-31.249z" fill="#efefef"/><g fill="#a4afc1"><path d="m28.467 1.967h1v2h-1z" transform="matrix(.707 -.707 .707 .707 6.39 21.356)"/><path d="m32.533 6.033h1v2h-1z" transform="matrix(.707 -.707 .707 .707 4.705 25.423)"/><path d="m31.856 2.467h2v1h-2z" transform="matrix(.707 -.707 .707 .707 7.526 24.102)"/></g><path d="m11.75 23.25h-3c-1.105 0-2-.895-2-2v-11.5c0-.552.448-1 1-1h4z" fill="#f3f3f1"/><path d="m29.25 13.75h-17.5v-5h16.5c.552 0 1 .448 1 1z" fill="#f3f3f1"/><path d="m11.75 13.75h17.5v5h-17.5z" fill="#2fdf84"/><path d="m27.25 23.25h-15.5v-4.5h17.5v2.5c0 1.105-.895 2-2 2z" fill="#f3f3f1"/><path d="m11.75 13.75h2.25v5h-2.25z" fill="#00b871"/><path d="m9 21.25v-11.5c0-.552.448-1 1-1h-2.25c-.552 0-1 .448-1 1v11.5c0 1.105.895 2 2 2h2.25c-1.105 0-2-.895-2-2z" fill="#d5dbe1"/><path d="m11.75 8.75h2.25v5h-2.25z" fill="#d5dbe1"/><path d="m11.75 18.75h2.25v4.5h-2.25z" fill="#d5dbe1"/><path d="m11 8.75h1.5v14.5h-1.5z"/><path d="m11.75 13h17.5v1.5h-17.5z"/><path d="m11.75 18h17.5v1.5h-17.5z"/><path d="m28.25 24h-20.5c-.965 0-1.75-.785-1.75-1.75v-12.5c0-.965.785-1.75 1.75-1.75h20.5c.965 0 1.75.785 1.75 1.75v12.5c0 .965-.785 1.75-1.75 1.75zm-20.5-14.5c-.138 0-.25.112-.25.25v12.5c0 .138.112.25.25.25h20.5c.138 0 .25-.112.25-.25v-12.5c0-.138-.112-.25-.25-.25z"/><path d="m17.25 23.25h1.5v4h-1.5z"/><path d="m13 26.5h10v1.5h-10z"/></svg>