<svg id="_x31__x2C_5" enable-background="new 0 0 36 36" height="512" viewBox="0 0 36 36" width="512" xmlns="http://www.w3.org/2000/svg"><path d="m8.377 4.167c6.917 0 11.667-3.583 15-3.583s10.333 1.916 10.333 17.249-9.417 17.583-13.083 17.583c-17.167.001-24.5-31.249-12.25-31.249z" fill="#efefef"/><path d="m10.5 4c-.827 0-1.5-.673-1.5-1.5s.673-1.5 1.5-1.5 1.5.673 1.5 1.5-.673 1.5-1.5 1.5zm0-2c-.276 0-.5.225-.5.5s.224.5.5.5.5-.225.5-.5-.224-.5-.5-.5z" fill="#a4afc1"/><path d="m28.25 25.25h-20.5c-.552 0-1-.448-1-1v-12.5c0-.552.448-1 1-1h20.5c.552 0 1 .448 1 1v12.5c0 .552-.448 1-1 1z" fill="#f3f3f1"/><path d="m20.75 17.25h-5.5c-.552 0-1-.448-1-1v-8.5c0-.552.448-1 1-1h5.5c.552 0 1 .448 1 1v8.5c0 .552-.448 1-1 1z" fill="#2fdf84"/><path d="m16.5 16.25v-8.5c0-.552.448-1 1-1h-2.25c-.552 0-1 .448-1 1v8.5c0 .552.448 1 1 1h2.25c-.552 0-1-.448-1-1z" fill="#00b871"/><path d="m9 24.25v-12.5c0-.552.448-1 1-1h-2.25c-.552 0-1 .448-1 1v12.5c0 .552.448 1 1 1h2.25c-.552 0-1-.448-1-1z" fill="#d5dbe1"/><path d="m20.75 18h-5.5c-.965 0-1.75-.785-1.75-1.75v-8.5c0-.965.785-1.75 1.75-1.75h5.5c.965 0 1.75.785 1.75 1.75v8.5c0 .965-.785 1.75-1.75 1.75zm-5.5-10.5c-.138 0-.25.112-.25.25v8.5c0 .138.112.25.25.25h5.5c.138 0 .25-.112.25-.25v-8.5c0-.138-.112-.25-.25-.25z"/><path d="m10.762 15.033-1.648-2.636c-.152-.243-.152-.552 0-.795l1.648-2.636 1.272.795-1.4 2.239 1.399 2.238z"/><path d="m25.238 15.033-1.272-.795 1.4-2.238-1.399-2.238 1.272-.795 1.648 2.636c.152.243.152.552 0 .795z"/><path d="m28.25 26h-20.5c-.965 0-1.75-.785-1.75-1.75v-12.5c0-.187.032-.374.095-.557.008-.037.02-.074.034-.109.114-.285.394-.474.701-.474v.747l.517-.53c.226.215.295.546.175.833l-.022.34v12.25c0 .136.114.25.25.25h20.5c.136 0 .25-.114.25-.25v-12.5c-.12-.287-.073-.708.153-.923l.513.539.004-.002v-.754l.701.474-.002.012c.087.214.131.434.131.654v12.5c0 .965-.785 1.75-1.75 1.75z"/><path d="m17.25 25.25h1.5v4h-1.5z"/><path d="m13 28.5h10v1.5h-10z"/></svg>