<svg id="_x31__x2C_5" enable-background="new 0 0 36 36" height="512" viewBox="0 0 36 36" width="512" xmlns="http://www.w3.org/2000/svg"><path d="m27.623 31.833c-6.917 0-11.667 3.583-15 3.583s-10.333-1.916-10.333-17.249 9.417-17.584 13.083-17.584c17.167 0 24.5 31.25 12.25 31.25z" fill="#efefef"/><g fill="#a4afc1"><path d="m28.467 2.967h1v2h-1z" transform="matrix(.707 -.707 .707 .707 5.676 21.641)"/><path d="m32.533 7.033h1v2h-1z" transform="matrix(.707 -.707 .707 .707 3.992 25.706)"/><path d="m31.856 3.467h2v1h-2z" transform="matrix(.707 -.707 .707 .707 6.818 24.395)"/></g><path d="m28.25 25.25h-20.5c-.552 0-1-.448-1-1v-12.5c0-.552.448-1 1-1h20.5c.552 0 1 .448 1 1v12.5c0 .552-.448 1-1 1z" fill="#f3f3f1"/><path d="m11.75 6.75h12.5v10.5h-12.5z" fill="#2fdf84"/><path d="m11.75 6.75h2.25v10.5h-2.25z" fill="#00b871"/><path d="m9 24.25v-12.5c0-.552.448-1 1-1h-2.25c-.552 0-1 .448-1 1v12.5c0 .552.448 1 1 1h2.25c-.552 0-1-.448-1-1z" fill="#d5dbe1"/><path d="m24.25 18h-12.5c-.414 0-.75-.336-.75-.75v-10.5c0-.414.336-.75.75-.75h12.5c.414 0 .75.336.75.75v10.5c0 .414-.336.75-.75.75zm-11.75-1.5h11v-9h-11z"/><path d="m15 6.75h1.5v10.5h-1.5z"/><path d="m11.75 11.25h12.5v1.5h-12.5z"/><path d="m28.25 26h-20.5c-.965 0-1.75-.785-1.75-1.75v-12.5c0-.965.785-1.75 1.75-1.75h1.25v1.5h-1.25c-.136 0-.25.114-.25.25v12.5c0 .136.114.25.25.25h20.5c.136 0 .25-.114.25-.25v-12.5c0-.136-.114-.25-.25-.25h-1.25v-1.5h1.25c.965 0 1.75.785 1.75 1.75v12.5c0 .965-.785 1.75-1.75 1.75z"/><path d="m17.25 25.25h1.5v4h-1.5z"/><path d="m13 28.5h10v1.5h-10z"/></svg>