<svg id="_x31__x2C_5" enable-background="new 0 0 36 36" height="512" viewBox="0 0 36 36" width="512" xmlns="http://www.w3.org/2000/svg"><path d="m4.167 27.623c0-6.917-3.583-11.667-3.583-15s1.916-10.333 17.249-10.333 17.583 9.417 17.583 13.083c.001 17.167-31.249 24.5-31.249 12.25z" fill="#efefef"/><path d="m31.5 6c-.827 0-1.5-.673-1.5-1.5s.673-1.5 1.5-1.5 1.5.673 1.5 1.5-.673 1.5-1.5 1.5zm0-2c-.275 0-.5.224-.5.5s.225.5.5.5.5-.224.5-.5-.225-.5-.5-.5z" fill="#a4afc1"/><path d="m28.25 25.25h-20.5c-.552 0-1-.448-1-1v-12.5c0-.552.448-1 1-1h20.5c.552 0 1 .448 1 1v12.5c0 .552-.448 1-1 1z" fill="#f3f3f1"/><path d="m6.75 9.5h12.5v-1.25c0-.828-.672-1.5-1.5-1.5h-9.5c-.828 0-1.5.672-1.5 1.5z" fill="#2fdf84"/><path d="m8.25 16.75h9.5c.828 0 1.5-.672 1.5-1.5v-5.75h-12.5v5.75c0 .828.672 1.5 1.5 1.5z" fill="#f3f3f1"/><path d="m10.5 6.75h-2.25c-.828 0-1.5.672-1.5 1.5v1.25h2.25v-1.25c0-.828.672-1.5 1.5-1.5z" fill="#00b871"/><path d="m10 25.25h-2.25c-.55 0-1-.45-1-1v-8.25l2.25.5v7.75c0 .55.45 1 1 1z" fill="#d5dbe1"/><path d="m9 15.25v-5.75h-2.25v5.75c0 .828.672 1.5 1.5 1.5h2.25c-.828 0-1.5-.672-1.5-1.5z" fill="#d5dbe1"/><path d="m17.75 17.5h-9.5c-1.24 0-2.25-1.009-2.25-2.25v-7c0-1.241 1.01-2.25 2.25-2.25h9.5c1.24 0 2.25 1.009 2.25 2.25v7c0 1.241-1.01 2.25-2.25 2.25zm-9.5-10c-.413 0-.75.336-.75.75v7c0 .414.337.75.75.75h9.5c.413 0 .75-.336.75-.75v-7c0-.414-.337-.75-.75-.75z"/><path d="m6.75 8.985h12.5v1.5h-12.5z"/><path d="m28.25 26h-20.5c-.965 0-1.75-.785-1.75-1.75v-5.25h1.5v5.25c0 .136.114.25.25.25h20.5c.136 0 .25-.114.25-.25v-12.5c0-.136-.114-.25-.25-.25h-6.25v-1.5h6.25c.965 0 1.75.785 1.75 1.75v12.5c0 .965-.785 1.75-1.75 1.75z"/><path d="m13 28.5h10v1.5h-10z"/><path d="m17.25 25.25h1.5v4h-1.5z"/><path d="m24.125 18.224h1.5v5.303h-1.5z" transform="matrix(.707 -.707 .707 .707 -7.476 23.704)"/><path d="m23.5 22h-1.5v-3.25c0-.414.336-.75.75-.75h3.25v1.5h-2.5z"/></svg>