<svg id="_x31__x2C_5" enable-background="new 0 0 36 36" height="512" viewBox="0 0 36 36" width="512" xmlns="http://www.w3.org/2000/svg"><path d="m27.623 31.833c-6.917 0-11.667 3.583-15 3.583s-10.333-1.916-10.333-17.249 9.417-17.584 13.083-17.584c17.167 0 24.5 31.25 12.25 31.25z" fill="#efefef"/><g fill="#a4afc1"><path d="m31.74 2.954h2v1h-2z" transform="matrix(.707 -.707 .707 .707 7.147 24.163)"/><path d="m32.594 6.344h1v2h-1z" transform="matrix(.707 -.707 .707 .707 4.5 25.552)"/><path d="m28.527 2.277h1v2h-1z" transform="matrix(.707 -.707 .707 .707 6.185 21.485)"/></g><path d="m28.25 25.25h-20.5c-.552 0-1-.448-1-1v-12.5c0-.552.448-1 1-1h20.5c.552 0 1 .448 1 1v12.5c0 .552-.448 1-1 1z" fill="#f3f3f1"/><path d="m26.25 12c-1.881 3.29-4.962 5.25-8.25 5.25s-6.369-1.96-8.25-5.25c1.881-3.29 4.962-5.25 8.25-5.25s6.369 1.96 8.25 5.25z" fill="#f3f3f1"/><circle cx="18" cy="12" fill="#2fdf84" r="2.25"/><path d="m18 12c0-.831.455-1.548 1.125-1.938-.332-.193-.713-.312-1.125-.312-1.243 0-2.25 1.007-2.25 2.25s1.007 2.25 2.25 2.25c.412 0 .793-.119 1.125-.312-.67-.39-1.125-1.107-1.125-1.938z" fill="#00b871"/><path d="m12 12c1.665-2.911 4.269-4.774 7.125-5.167-.372-.051-.746-.083-1.125-.083-3.288 0-6.369 1.96-8.25 5.25 1.881 3.29 4.962 5.25 8.25 5.25.379 0 .753-.032 1.125-.083-2.856-.393-5.46-2.256-7.125-5.167z" fill="#d5dbe1"/><path d="m9 24.25v-12.5c0-.552.448-1 1-1h-2.25c-.552 0-1 .448-1 1v12.5c0 .552.448 1 1 1h2.25c-.552 0-1-.448-1-1z" fill="#d5dbe1"/><path d="m17.25 25.25h1.5v4h-1.5z"/><path d="m18 15c-1.654 0-3-1.346-3-3s1.346-3 3-3 3 1.346 3 3-1.346 3-3 3zm0-4.5c-.827 0-1.5.673-1.5 1.5s.673 1.5 1.5 1.5 1.5-.673 1.5-1.5-.673-1.5-1.5-1.5z"/><path d="m18 18c-3.559 0-6.887-2.104-8.901-5.628-.132-.23-.132-.514 0-.744 2.014-3.524 5.342-5.628 8.901-5.628s6.887 2.104 8.901 5.628c.132.23.132.514 0 .744-2.014 3.524-5.342 5.628-8.901 5.628zm-7.377-6c1.758 2.826 4.487 4.5 7.377 4.5s5.619-1.674 7.377-4.5c-1.758-2.826-4.487-4.5-7.377-4.5s-5.619 1.674-7.377 4.5z"/><path d="m28.25 26h-20.5c-.965 0-1.75-.785-1.75-1.75v-13.25h1.5v13.25c0 .136.114.25.25.25h20.5c.136 0 .25-.114.25-.25v-13.25h1.5v13.25c0 .965-.785 1.75-1.75 1.75z"/><path d="m13 28.5h10v1.5h-10z"/></svg>