<svg id="_x31__x2C_5" enable-background="new 0 0 36 36" height="512" viewBox="0 0 36 36" width="512" xmlns="http://www.w3.org/2000/svg"><path d="m27.623 4.167c-6.917 0-11.667-3.583-15-3.583s-10.333 1.916-10.333 17.249 9.417 17.583 13.083 17.583c17.167.001 24.5-31.249 12.25-31.249z" fill="#efefef"/><path d="m6.033 2.467h2v1h-2z" fill="#a4afc1" transform="matrix(.707 -.707 .707 .707 -.038 5.842)"/><path d="m1.967 6.533h2v1h-2z" fill="#a4afc1" transform="matrix(.707 -.707 .707 .707 -4.104 4.158)"/><path d="m2.644 1.967h1v2h-1z" fill="#a4afc1" transform="matrix(.707 -.707 .707 .707 -1.177 3.092)"/><path d="m28.25 10.75c.55 0 1 .45 1 1v11h-22.5v-11c0-.55.45-1 1-1z" fill="#f3f3f1"/><g fill="#2fdf84"><path d="m23.5 10.25c-.967 0-1.75-.784-1.75-1.75 0-.966.784-1.75 1.75-1.75.966 0 1.75.784 1.75 1.75 0 .966-.784 1.75-1.75 1.75z"/><path d="m13.25 17.25h-1.5c-.552 0-1-.448-1-1v-1.5c0-.552.448-1 1-1h1.5c.552 0 1 .448 1 1v1.5c0 .552-.448 1-1 1z"/><path d="m12.5 10.25c-.967 0-1.75-.784-1.75-1.75 0-.966.784-1.75 1.75-1.75.966 0 1.75.784 1.75 1.75 0 .966-.784 1.75-1.75 1.75z"/><path d="m24.25 17.25h-1.5c-.552 0-1-.448-1-1v-1.5c0-.552.448-1 1-1h1.5c.552 0 1 .448 1 1v1.5c0 .552-.448 1-1 1z"/><path d="m19.75 26.25s.245 1.765 1.48 3h.02-6.5c1.25-1.25 1.48-3 1.48-3z"/><path d="m7.75 26.25h20.5c.552 0 1-.448 1-1v-2.5h-22.5v2.5c0 .552.448 1 1 1z"/></g><path d="m24 8.5c0-.536.246-1.009.625-1.33-.305-.258-.694-.42-1.125-.42-.966 0-1.75.784-1.75 1.75s.784 1.75 1.75 1.75c.431 0 .82-.162 1.125-.42-.379-.321-.625-.794-.625-1.33z" fill="#00b871"/><path d="m13 16.25v-1.5c0-.419.259-.776.625-.924-.116-.047-.242-.076-.375-.076h-1.5c-.552 0-1 .448-1 1v1.5c0 .552.448 1 1 1h1.5c.133 0 .259-.029.375-.076-.366-.148-.625-.505-.625-.924z" fill="#00b871"/><path d="m13 8.5c0-.536.246-1.009.625-1.33-.305-.258-.694-.42-1.125-.42-.966 0-1.75.784-1.75 1.75s.784 1.75 1.75 1.75c.431 0 .82-.162 1.125-.42-.379-.321-.625-.794-.625-1.33z" fill="#00b871"/><path d="m24 16.25v-1.5c0-.419.259-.776.625-.924-.116-.047-.242-.076-.375-.076h-1.5c-.552 0-1 .448-1 1v1.5c0 .552.448 1 1 1h1.5c.133 0 .259-.029.375-.076-.366-.148-.625-.505-.625-.924z" fill="#00b871"/><path d="m16.23 26.25s-.23 1.75-1.48 3h2.25c1.25-1.25 1.48-3 1.48-3z" fill="#00b871"/><path d="m9 25.25v-2.5h-2.25v2.5c0 .552.448 1 1 1h2.25c-.552 0-1-.448-1-1z" fill="#00b871"/><path d="m10 10.75h-2.25c-.55 0-1 .45-1 1v11h2.25v-11c0-.55.45-1 1-1z" fill="#d5dbe1"/><path d="m6.75 22h22.5v1.5h-22.5z"/><path d="m21.25 30h-6.5c-.303 0-.577-.183-.693-.463s-.052-.603.163-.817c1.041-1.041 1.265-2.552 1.267-2.567l1.487.195c-.008.059-.147 1.066-.744 2.152h3.523c-.591-1.081-.738-2.088-.746-2.147l1.485-.208c.002.015.221 1.458 1.184 2.489.196.135.324.36.324.616 0 .414-.336.75-.75.75z"/><path d="m23.5 11c-1.378 0-2.5-1.122-2.5-2.5s1.122-2.5 2.5-2.5 2.5 1.122 2.5 2.5-1.122 2.5-2.5 2.5zm0-3.5c-.551 0-1 .449-1 1s.449 1 1 1 1-.449 1-1-.449-1-1-1z"/><path d="m13.25 18h-1.5c-.965 0-1.75-.785-1.75-1.75v-1.5c0-.965.785-1.75 1.75-1.75h1.5c.965 0 1.75.785 1.75 1.75v1.5c0 .965-.785 1.75-1.75 1.75zm-1.5-3.5c-.138 0-.25.112-.25.25v1.5c0 .138.112.25.25.25h1.5c.138 0 .25-.112.25-.25v-1.5c0-.138-.112-.25-.25-.25z"/><path d="m12.5 11c-1.378 0-2.5-1.122-2.5-2.5s1.122-2.5 2.5-2.5 2.5 1.122 2.5 2.5-1.122 2.5-2.5 2.5zm0-3.5c-.551 0-1 .449-1 1s.449 1 1 1 1-.449 1-1-.449-1-1-1z"/><path d="m24.25 18h-1.5c-.965 0-1.75-.785-1.75-1.75v-1.5c0-.965.785-1.75 1.75-1.75h1.5c.965 0 1.75.785 1.75 1.75v1.5c0 .965-.785 1.75-1.75 1.75zm-1.5-3.5c-.138 0-.25.112-.25.25v1.5c0 .138.112.25.25.25h1.5c.138 0 .25-.112.25-.25v-1.5c0-.138-.112-.25-.25-.25z"/><path d="m14.5 7.75h7v1.5h-7z"/><path d="m17.25 8.5h1.5v7h-1.5z"/><path d="m14.5 14.75h7v1.5h-7z"/><path d="m28.25 27h-20.5c-.965 0-1.75-.785-1.75-1.75v-13.5c0-.965.785-1.75 1.75-1.75h1.25v1.5h-1.25c-.136 0-.25.114-.25.25v13.5c0 .136.114.25.25.25h20.5c.136 0 .25-.114.25-.25v-13.5c0-.136-.114-.25-.25-.25h-1.25v-1.5h1.25c.965 0 1.75.785 1.75 1.75v13.5c0 .965-.785 1.75-1.75 1.75z"/></svg>