<svg id="_x31__x2C_5" enable-background="new 0 0 36 36" height="512" viewBox="0 0 36 36" width="512" xmlns="http://www.w3.org/2000/svg"><path d="m27.623 31.833c-6.917 0-11.667 3.583-15 3.583s-10.333-1.916-10.333-17.249 9.417-17.584 13.083-17.584c17.167 0 24.5 31.25 12.25 31.25z" fill="#efefef"/><path d="m22.5 4c-.827 0-1.5-.673-1.5-1.5s.673-1.5 1.5-1.5 1.5.673 1.5 1.5-.673 1.5-1.5 1.5zm0-2c-.276 0-.5.225-.5.5s.224.5.5.5.5-.225.5-.5-.224-.5-.5-.5z" fill="#a4afc1"/><path d="m11.75 20.75h-5v-11c0-.552.448-1 1-1h4z" fill="#f3f3f1"/><path d="m29.25 12.75h-17.5v-4h16.5c.552 0 1 .448 1 1z" fill="#f3f3f1"/><path d="m11.75 12.75h17.5v4h-17.5z" fill="#2fdf84"/><path d="m11.75 16.75h17.5v4h-17.5z" fill="#f3f3f1"/><path d="m19.75 24.25s.245 1.765 1.48 3h.02-6.5c1.25-1.25 1.48-3 1.48-3z" fill="#2fdf84"/><path d="m7.75 24.25h20.5c.552 0 1-.448 1-1v-2.5h-22.5v2.5c0 .552.448 1 1 1z" fill="#2fdf84"/><g fill="#00b871"><path d="m11.75 12.75h2.25v4h-2.25z"/><path d="m16.23 24.25s-.23 1.75-1.48 3h2.25c1.25-1.25 1.48-3 1.48-3z"/><path d="m9 23.25v-2.5h-2.25v2.5c0 .552.448 1 1 1h2.25c-.552 0-1-.448-1-1z"/></g><path d="m10 8.75h-2.25c-.552 0-1 .448-1 1v11h2.25v-11c0-.552.448-1 1-1z" fill="#d5dbe1"/><path d="m11.75 8.75h2.25v4h-2.25z" fill="#d5dbe1"/><path d="m11.75 16.75h2.25v4h-2.25z" fill="#d5dbe1"/><path d="m11 8.75h1.5v12h-1.5z"/><path d="m11.75 12h17.5v1.5h-17.5z"/><path d="m11.75 16h17.5v1.5h-17.5z"/><path d="m28.25 25h-20.5c-.965 0-1.75-.785-1.75-1.75v-13.5c0-.965.785-1.75 1.75-1.75h20.5c.965 0 1.75.785 1.75 1.75v13.5c0 .965-.785 1.75-1.75 1.75zm-20.5-15.5c-.138 0-.25.112-.25.25v13.5c0 .138.112.25.25.25h20.5c.138 0 .25-.112.25-.25v-13.5c0-.138-.112-.25-.25-.25z"/><path d="m6.75 20h22.5v1.5h-22.5z"/><path d="m21.25 28h-6.5c-.303 0-.577-.183-.693-.463s-.052-.603.163-.817c1.041-1.041 1.265-2.553 1.267-2.567l1.487.195c-.008.059-.147 1.066-.744 2.152h3.523c-.591-1.08-.738-2.088-.746-2.147l1.485-.208c.002.015.221 1.458 1.184 2.488.196.136.324.361.324.617 0 .414-.336.75-.75.75z"/></svg>