<svg id="_x31__x2C_5" enable-background="new 0 0 36 36" height="512" viewBox="0 0 36 36" width="512" xmlns="http://www.w3.org/2000/svg"><path d="m31.833 8.377c0 6.917 3.583 11.667 3.583 15s-1.916 10.333-17.249 10.333-17.584-9.417-17.584-13.083c0-17.167 31.25-24.5 31.25-12.25z" fill="#efefef"/><g fill="#a4afc1"><path d="m29.055 1.967h1v2h-1z" transform="matrix(.707 -.707 .707 .707 6.562 21.772)"/><path d="m33.121 6.033h1v2h-1z" transform="matrix(.707 -.707 .707 .707 4.878 25.839)"/><path d="m28.379 6.533h2v1h-2z" transform="matrix(.707 -.707 .707 .707 3.632 22.834)"/><path d="m32.445 2.467h2v1h-2z" transform="matrix(.707 -.707 .707 .707 7.698 24.518)"/></g><path d="m19.75 26.25s.245 1.765 1.48 3h.02-6.5c1.25-1.25 1.48-3 1.48-3z" fill="#2fdf84"/><path d="m28.25 10.75c.55 0 1 .45 1 1v11h-22.5v-11c0-.55.45-1 1-1z" fill="#f3f3f1"/><path d="m7.75 26.25h20.5c.552 0 1-.448 1-1v-2.5h-22.5v2.5c0 .552.448 1 1 1z" fill="#2fdf84"/><path d="m20.75 17.25h-5.5c-.552 0-1-.448-1-1v-8.5c0-.552.448-1 1-1h5.5c.552 0 1 .448 1 1v8.5c0 .552-.448 1-1 1z" fill="#2fdf84"/><path d="m16.23 26.25s-.23 1.75-1.48 3h2.25c1.25-1.25 1.48-3 1.48-3z" fill="#00b871"/><path d="m9 25.25v-2.5h-2.25v2.5c0 .552.448 1 1 1h2.25c-.552 0-1-.448-1-1z" fill="#00b871"/><path d="m16.5 16.25v-8.5c0-.552.448-1 1-1h-2.25c-.552 0-1 .448-1 1v8.5c0 .552.448 1 1 1h2.25c-.552 0-1-.448-1-1z" fill="#00b871"/><path d="m10 10.75h-2.25c-.55 0-1 .45-1 1v11h2.25v-11c0-.55.45-1 1-1z" fill="#d5dbe1"/><path d="m20.75 18h-5.5c-.965 0-1.75-.785-1.75-1.75v-8.5c0-.965.785-1.75 1.75-1.75h5.5c.965 0 1.75.785 1.75 1.75v8.5c0 .965-.785 1.75-1.75 1.75zm-5.5-10.5c-.138 0-.25.112-.25.25v8.5c0 .138.112.25.25.25h5.5c.138 0 .25-.112.25-.25v-8.5c0-.138-.112-.25-.25-.25z"/><path d="m10.626 14.666-1.5-2.25c-.168-.252-.168-.58 0-.832l1.5-2.25 1.248.832-1.223 1.834 1.223 1.834z"/><path d="m25.374 14.666-1.248-.832 1.223-1.834-1.223-1.834 1.248-.832 1.5 2.25c.168.252.168.58 0 .832z"/><path d="m28.25 27h-20.5c-.965 0-1.75-.785-1.75-1.75v-13.5c0-.187.032-.374.095-.557.008-.037.02-.074.034-.109.114-.285.394-.474.701-.474v.747l.517-.53c.226.215.295.546.175.833l-.022.34v13.25c0 .136.114.25.25.25h20.5c.136 0 .25-.114.25-.25v-13.5c-.12-.287-.073-.708.153-.923l.513.539.004-.002v-.754l.701.474-.002.012c.087.214.131.434.131.654v13.5c0 .965-.785 1.75-1.75 1.75z"/><path d="m6.75 22h22.5v1.5h-22.5z"/><path d="m21.25 30h-6.5c-.303 0-.577-.183-.693-.463s-.052-.603.163-.817c1.041-1.041 1.265-2.553 1.267-2.567l1.487.195c-.008.059-.147 1.066-.744 2.152h3.523c-.591-1.08-.738-2.088-.746-2.147l1.485-.208c.002.015.221 1.458 1.184 2.488.196.136.324.361.324.617 0 .414-.336.75-.75.75z"/></svg>