<svg id="_x31__x2C_5" enable-background="new 0 0 36 36" height="512" viewBox="0 0 36 36" width="512" xmlns="http://www.w3.org/2000/svg"><path d="m31.833 8.377c0 6.917 3.583 11.667 3.583 15s-1.916 10.333-17.249 10.333-17.584-9.417-17.584-13.083c0-17.167 31.25-24.5 31.25-12.25z" fill="#efefef"/><g fill="#a4afc1"><path d="m31.68 3.644h2v1h-2z" transform="matrix(.707 -.707 .707 .707 6.642 24.322)"/><path d="m32.533 7.033h1v2h-1z" transform="matrix(.707 -.707 .707 .707 3.995 25.711)"/><path d="m28.467 2.967h1v2h-1z" transform="matrix(.707 -.707 .707 .707 5.679 21.645)"/></g><path d="m19.75 26.25s.245 1.765 1.48 3h.02-6.5c1.25-1.25 1.48-3 1.48-3z" fill="#2fdf84"/><path d="m28.25 10.75c.55 0 1 .45 1 1v11h-22.5v-11c0-.55.45-1 1-1z" fill="#f3f3f1"/><path d="m7.75 26.25h20.5c.552 0 1-.448 1-1v-2.5h-22.5v2.5c0 .552.448 1 1 1z" fill="#2fdf84"/><path d="m26.25 12c-1.881 3.29-4.962 5.25-8.25 5.25s-6.369-1.96-8.25-5.25c1.881-3.29 4.962-5.25 8.25-5.25s6.369 1.96 8.25 5.25z" fill="#f3f3f1"/><circle cx="18" cy="12" fill="#2fdf84" r="2.25"/><path d="m16.23 26.25s-.23 1.75-1.48 3h2.25c1.25-1.25 1.48-3 1.48-3z" fill="#00b871"/><path d="m9 25.25v-2.5h-2.25v2.5c0 .552.448 1 1 1h2.25c-.552 0-1-.448-1-1z" fill="#00b871"/><path d="m18 12c0-.831.455-1.548 1.125-1.938-.332-.193-.713-.312-1.125-.312-1.243 0-2.25 1.007-2.25 2.25s1.007 2.25 2.25 2.25c.412 0 .793-.119 1.125-.312-.67-.39-1.125-1.107-1.125-1.938z" fill="#00b871"/><path d="m10 10.75h-2.25c-.55 0-1 .45-1 1v11h2.25v-11c0-.55.45-1 1-1z" fill="#d5dbe1"/><path d="m12 12c1.665-2.911 4.269-4.774 7.125-5.167-.372-.051-.746-.083-1.125-.083-3.288 0-6.369 1.96-8.25 5.25 1.881 3.29 4.962 5.25 8.25 5.25.379 0 .753-.032 1.125-.083-2.856-.393-5.46-2.256-7.125-5.167z" fill="#d5dbe1"/><path d="m6.75 22h22.5v1.5h-22.5z"/><path d="m21.25 30h-6.5c-.304 0-.577-.183-.693-.463-.115-.28-.052-.603.163-.817 1.046-1.046 1.266-2.555 1.268-2.57l1.486.198c-.007.059-.147 1.066-.743 2.152h3.522c-.591-1.08-.737-2.088-.746-2.146l1.485-.209c.003.015.223 1.459 1.186 2.489.195.136.322.361.322.616 0 .414-.336.75-.75.75z"/><path d="m18 15c-1.654 0-3-1.346-3-3s1.346-3 3-3 3 1.346 3 3-1.346 3-3 3zm0-4.5c-.827 0-1.5.673-1.5 1.5s.673 1.5 1.5 1.5 1.5-.673 1.5-1.5-.673-1.5-1.5-1.5z"/><path d="m18 18c-3.559 0-6.887-2.104-8.901-5.628-.132-.23-.132-.514 0-.744 2.014-3.524 5.342-5.628 8.901-5.628s6.887 2.104 8.901 5.628c.132.23.132.514 0 .744-2.014 3.524-5.342 5.628-8.901 5.628zm-7.377-6c1.758 2.826 4.487 4.5 7.377 4.5s5.619-1.674 7.377-4.5c-1.758-2.826-4.487-4.5-7.377-4.5s-5.619 1.674-7.377 4.5z"/><path d="m28.25 27h-20.5c-.965 0-1.75-.785-1.75-1.75v-15.25h1.5v15.25c0 .136.114.25.25.25h20.5c.136 0 .25-.114.25-.25v-15.25h1.5v15.25c0 .965-.785 1.75-1.75 1.75z"/></svg>