<svg id="_x31__x2C_5" enable-background="new 0 0 36 36" height="512" viewBox="0 0 36 36" width="512" xmlns="http://www.w3.org/2000/svg"><path d="m27.623 4.167c-6.917 0-11.667-3.583-15-3.583s-10.333 1.916-10.333 17.249 9.417 17.583 13.083 17.583c17.167.001 24.5-31.249 12.25-31.249z" fill="#efefef"/><path d="m3.5 6c-.827 0-1.5-.673-1.5-1.5s.673-1.5 1.5-1.5 1.5.673 1.5 1.5-.673 1.5-1.5 1.5zm0-2c-.276 0-.5.224-.5.5s.224.5.5.5.5-.224.5-.5-.224-.5-.5-.5z" fill="#a4afc1"/><path d="m21.25 29.25h-13.5c-.552 0-1-.448-1-1v-2.5c0-.552.448-1 1-1h13.5c.552 0 1 .448 1 1v2.5c0 .552-.448 1-1 1z" fill="#f3f3f1"/><path d="m21.25 20.25h-13.5c-.552 0-1-.448-1-1v-2.5c0-.552.448-1 1-1h13.5c.552 0 1 .448 1 1v2.5c0 .552-.448 1-1 1z" fill="#2fdf84"/><path d="m21.25 11.25h-13.5c-.552 0-1-.448-1-1v-2.5c0-.552.448-1 1-1h13.5c.552 0 1 .448 1 1v2.5c0 .552-.448 1-1 1z" fill="#f3f3f1"/><path d="m9 19.25v-2.5c0-.552.448-1 1-1h-2.25c-.552 0-1 .448-1 1v2.5c0 .552.448 1 1 1h2.25c-.552 0-1-.448-1-1z" fill="#00b871"/><path d="m9 28.25v-2.5c0-.552.448-1 1-1h-2.25c-.552 0-1 .448-1 1v2.5c0 .552.448 1 1 1h2.25c-.552 0-1-.448-1-1z" fill="#d5dbe1"/><path d="m9 10.25v-2.5c0-.552.448-1 1-1h-2.25c-.552 0-1 .448-1 1v2.5c0 .552.448 1 1 1h2.25c-.552 0-1-.448-1-1z" fill="#d5dbe1"/><path d="m21.25 30h-13.5c-.965 0-1.75-.785-1.75-1.75v-2.5c0-.965.785-1.75 1.75-1.75h13.5c.965 0 1.75.785 1.75 1.75v2.5c0 .965-.785 1.75-1.75 1.75zm-13.5-4.5c-.138 0-.25.112-.25.25v2.5c0 .138.112.25.25.25h13.5c.138 0 .25-.112.25-.25v-2.5c0-.138-.112-.25-.25-.25z"/><path d="m27.25 27.75h-4.75v-1.5h4.75c.689 0 1.25-.561 1.25-1.25v-14c0-.689-.561-1.25-1.25-1.25h-4.75v-1.5h4.75c1.517 0 2.75 1.233 2.75 2.75v14c0 1.517-1.233 2.75-2.75 2.75z"/><path d="m22.5 17.25h6.75v1.5h-6.75z"/><path d="m21.25 21h-13.5c-.965 0-1.75-.785-1.75-1.75v-2.5c0-.965.785-1.75 1.75-1.75h13.5c.965 0 1.75.785 1.75 1.75v2.5c0 .965-.785 1.75-1.75 1.75zm-13.5-4.5c-.138 0-.25.112-.25.25v2.5c0 .138.112.25.25.25h13.5c.138 0 .25-.112.25-.25v-2.5c0-.138-.112-.25-.25-.25z"/><path d="m21.25 12h-13.5c-.965 0-1.75-.785-1.75-1.75v-2.5c0-.965.785-1.75 1.75-1.75h13.5c.965 0 1.75.785 1.75 1.75v2.5c0 .965-.785 1.75-1.75 1.75zm-13.5-4.5c-.138 0-.25.112-.25.25v2.5c0 .138.112.25.25.25h13.5c.138 0 .25-.112.25-.25v-2.5c0-.138-.112-.25-.25-.25z"/></svg>