<svg id="_x31__x2C_5" enable-background="new 0 0 36 36" height="512" viewBox="0 0 36 36" width="512" xmlns="http://www.w3.org/2000/svg"><path d="m8.377 31.833c6.917 0 11.667 3.583 15 3.583s10.333-1.916 10.333-17.249-9.417-17.584-13.083-17.584c-17.167 0-24.5 31.25-12.25 31.25z" fill="#efefef"/><g fill="#a4afc1"><path d="m7.773 1.467h2v1h-2z" transform="matrix(.707 -.707 .707 .707 1.179 6.78)"/><path d="m3.707 5.533h2v1h-2z" transform="matrix(.707 -.707 .707 .707 -2.887 5.095)"/><path d="m4.384.967h1v2h-1z" transform="matrix(.707 -.707 .707 .707 .039 4.029)"/></g><path d="m24.25 29.25h-12.5c-1.105 0-2-.895-2-2v-18.5c0-1.105.895-2 2-2h12.5c1.105 0 2 .895 2 2v18.5c0 1.105-.895 2-2 2z" fill="#f3f3f1"/><path d="m16.25 10.75v1.5c0 .552-.448 1-1 1h-1.5c-.552 0-1-.448-1-1v-1.5c0-.552.448-1 1-1h1.5c.552 0 1 .448 1 1z" fill="#2fdf84"/><path d="m16.25 23.75v1.5c0 .552-.448 1-1 1h-1.5c-.552 0-1-.448-1-1v-1.5c0-.552.448-1 1-1h1.5c.552 0 1 .448 1 1z" fill="#2fdf84"/><path d="m21.5 16.25c.967 0 1.75.784 1.75 1.75 0 .966-.784 1.75-1.75 1.75-.966 0-1.75-.784-1.75-1.75 0-.966.784-1.75 1.75-1.75z" fill="#2fdf84"/><path d="m15 12.25v-1.5c0-.419.259-.776.625-.924-.116-.047-.242-.076-.375-.076h-1.5c-.552 0-1 .448-1 1v1.5c0 .552.448 1 1 1h1.5c.133 0 .259-.029.375-.076-.366-.148-.625-.505-.625-.924z" fill="#00b871"/><path d="m15 25.25v-1.5c0-.419.259-.776.625-.924-.116-.047-.242-.076-.375-.076h-1.5c-.552 0-1 .448-1 1v1.5c0 .552.448 1 1 1h1.5c.133 0 .259-.029.375-.076-.366-.148-.625-.505-.625-.924z" fill="#00b871"/><path d="m22 18c0-.536.246-1.009.625-1.33-.305-.258-.694-.42-1.125-.42-.966 0-1.75.784-1.75 1.75s.784 1.75 1.75 1.75c.431 0 .82-.162 1.125-.42-.379-.321-.625-.794-.625-1.33z" fill="#00b871"/><path d="m12 27.25v-18.5c0-1.105.895-2 2-2h-2.25c-1.105 0-2 .895-2 2v18.5c0 1.105.895 2 2 2h2.25c-1.105 0-2-.895-2-2z" fill="#d5dbe1"/><path d="m24.25 30h-12.5c-1.517 0-2.75-1.233-2.75-2.75v-18.5c0-1.517 1.233-2.75 2.75-2.75h12.5c1.517 0 2.75 1.233 2.75 2.75v18.5c0 1.517-1.233 2.75-2.75 2.75zm-12.5-22.5c-.689 0-1.25.561-1.25 1.25v18.5c0 .689.561 1.25 1.25 1.25h12.5c.689 0 1.25-.561 1.25-1.25v-18.5c0-.689-.561-1.25-1.25-1.25z"/><path d="m15.25 14h-1.5c-.965 0-1.75-.785-1.75-1.75v-1.5c0-.965.785-1.75 1.75-1.75h1.5c.965 0 1.75.785 1.75 1.75v1.5c0 .965-.785 1.75-1.75 1.75zm-1.5-3.5c-.138 0-.25.112-.25.25v1.5c0 .138.112.25.25.25h1.5c.138 0 .25-.112.25-.25v-1.5c0-.138-.112-.25-.25-.25z"/><path d="m15.25 27h-1.5c-.965 0-1.75-.785-1.75-1.75v-1.5c0-.965.785-1.75 1.75-1.75h1.5c.965 0 1.75.785 1.75 1.75v1.5c0 .965-.785 1.75-1.75 1.75zm-1.5-3.5c-.138 0-.25.112-.25.25v1.5c0 .138.112.25.25.25h1.5c.138 0 .25-.112.25-.25v-1.5c0-.138-.112-.25-.25-.25z"/><path d="m21.5 20.5c-1.378 0-2.5-1.122-2.5-2.5s1.122-2.5 2.5-2.5 2.5 1.122 2.5 2.5-1.122 2.5-2.5 2.5zm0-3.5c-.551 0-1 .449-1 1s.449 1 1 1 1-.449 1-1-.449-1-1-1z"/><path d="m22.25 15.75h-1.5v-2.25c0-.689-.561-1.25-1.25-1.25h-3v-1.5h3c1.517 0 2.75 1.233 2.75 2.75z"/><path d="m19.5 25.25h-3v-1.5h3c.689 0 1.25-.561 1.25-1.25v-2.25h1.5v2.25c0 1.517-1.233 2.75-2.75 2.75z"/></svg>