<svg id="_x31__x2C_5" enable-background="new 0 0 36 36" height="512" viewBox="0 0 36 36" width="512" xmlns="http://www.w3.org/2000/svg"><path d="m27.623 31.833c-6.917 0-11.667 3.583-15 3.583s-10.333-1.916-10.333-17.249 9.417-17.584 13.083-17.584c17.167 0 24.5 31.25 12.25 31.25z" fill="#efefef"/><g fill="#a4afc1"><path d="m27.369 6.705h2v1h-2z" transform="matrix(.707 -.707 .707 .707 3.215 22.17)"/><path d="m28.222 10.094h1v2h-1z" transform="matrix(.707 -.707 .707 .707 .568 23.559)"/><path d="m24.156 6.028h1v2h-1z" transform="matrix(.707 -.707 .707 .707 2.252 19.493)"/></g><path d="m27.25 29.25h-18.5c-1.105 0-2-.895-2-2v-8.5c0-1.105.895-2 2-2h18.5c1.105 0 2 .895 2 2v8.5c0 1.105-.895 2-2 2z" fill="#f3f3f1"/><path d="m9 27.25v-8.5c0-1.105.895-2 2-2h-2.25c-1.105 0-2 .895-2 2v8.5c0 1.105.895 2 2 2h2.25c-1.105 0-2-.895-2-2z" fill="#d5dbe1"/><path d="m10 19.5h16v1.5h-16z"/><path d="m10 22.5h16v1.5h-16z"/><path d="m13 25.5h10v1.5h-10z"/><path d="m27.25 30h-18.5c-1.517 0-2.75-1.233-2.75-2.75v-8.5c0-1.517 1.233-2.75 2.75-2.75h18.5c1.517 0 2.75 1.233 2.75 2.75v8.5c0 1.517-1.233 2.75-2.75 2.75zm-18.5-12.5c-.689 0-1.25.561-1.25 1.25v8.5c0 .689.561 1.25 1.25 1.25h18.5c.689 0 1.25-.561 1.25-1.25v-8.5c0-.689-.561-1.25-1.25-1.25z"/><path d="m19 16.75h-1.5v-7.75c0-.827-.673-1.5-1.5-1.5s-1.5.673-1.5 1.5v1.75c0 1.792-1.458 3.25-3.25 3.25s-3.25-1.458-3.25-3.25v-4.75h1.5v4.75c0 .965.785 1.75 1.75 1.75s1.75-.785 1.75-1.75v-1.75c0-1.654 1.346-3 3-3s3 1.346 3 3z"/></svg>