<svg id="_x31__x2C_5" enable-background="new 0 0 36 36" height="512" viewBox="0 0 36 36" width="512" xmlns="http://www.w3.org/2000/svg"><path d="m8.377 31.833c6.917 0 11.667 3.583 15 3.583s10.333-1.916 10.333-17.249-9.417-17.584-13.083-17.584c-17.167 0-24.5 31.25-12.25 31.25z" fill="#efefef"/><path d="m24.625 6.25h1v2h-1z" fill="#a4afc1"/><path d="m26.875 9.25h2v1h-2z" fill="#a4afc1"/><path d="m27.25 29.25h-18.5c-1.105 0-2-.895-2-2v-8.5c0-1.105.895-2 2-2h18.5c1.105 0 2 .895 2 2v8.5c0 1.105-.895 2-2 2z" fill="#f3f3f1"/><path d="m18.25 26.25h-7.5c-.552 0-1-.448-1-1v-4.5c0-.552.448-1 1-1h7.5c.552 0 1 .448 1 1v4.5c0 .552-.448 1-1 1z" fill="#2fdf84"/><path d="m25.25 26.25h-1.5c-.552 0-1-.448-1-1v-4.5c0-.552.448-1 1-1h1.5c.552 0 1 .448 1 1v4.5c0 .552-.448 1-1 1z" fill="#2fdf84"/><path d="m12 25.25v-4.5c0-.552.448-1 1-1h-2.25c-.552 0-1 .448-1 1v4.5c0 .552.448 1 1 1h2.25c-.552 0-1-.448-1-1z" fill="#00b871"/><path d="m25 25.25v-4.5c0-.419.259-.776.625-.924-.116-.047-.242-.076-.375-.076h-1.5c-.552 0-1 .448-1 1v4.5c0 .552.448 1 1 1h1.5c.133 0 .259-.029.375-.076-.366-.148-.625-.505-.625-.924z" fill="#00b871"/><path d="m9 27.25v-8.5c0-1.105.895-2 2-2h-2.25c-1.105 0-2 .895-2 2v8.5c0 1.105.895 2 2 2h2.25c-1.105 0-2-.895-2-2z" fill="#d5dbe1"/><path d="m25.25 27h-1.5c-.965 0-1.75-.785-1.75-1.75v-4.5c0-.965.785-1.75 1.75-1.75h1.5c.965 0 1.75.785 1.75 1.75v4.5c0 .965-.785 1.75-1.75 1.75zm-1.5-6.5c-.138 0-.25.112-.25.25v4.5c0 .138.112.25.25.25h1.5c.138 0 .25-.112.25-.25v-4.5c0-.138-.112-.25-.25-.25z"/><path d="m18.25 27h-7.5c-.965 0-1.75-.785-1.75-1.75v-4.5c0-.965.785-1.75 1.75-1.75h7.5c.965 0 1.75.785 1.75 1.75v4.5c0 .965-.785 1.75-1.75 1.75zm-7.5-6.5c-.138 0-.25.112-.25.25v4.5c0 .138.112.25.25.25h7.5c.138 0 .25-.112.25-.25v-4.5c0-.138-.112-.25-.25-.25z"/><path d="m27.25 30h-18.5c-1.517 0-2.75-1.233-2.75-2.75v-8.5c0-1.517 1.233-2.75 2.75-2.75h18.5c1.517 0 2.75 1.233 2.75 2.75v8.5c0 1.517-1.233 2.75-2.75 2.75zm-18.5-12.5c-.689 0-1.25.561-1.25 1.25v8.5c0 .689.561 1.25 1.25 1.25h18.5c.689 0 1.25-.561 1.25-1.25v-8.5c0-.689-.561-1.25-1.25-1.25z"/><path d="m19 16.75h-1.5v-7.75c0-.827-.673-1.5-1.5-1.5s-1.5.673-1.5 1.5v2.5c0 1.654-1.346 3-3 3h-.5c-1.654 0-3-1.346-3-3v-5.5h1.5v5.5c0 .827.673 1.5 1.5 1.5h.5c.827 0 1.5-.673 1.5-1.5v-2.5c0-1.654 1.346-3 3-3s3 1.346 3 3z"/></svg>