<svg id="_x31__x2C_5" enable-background="new 0 0 36 36" height="512" viewBox="0 0 36 36" width="512" xmlns="http://www.w3.org/2000/svg"><path d="m8.377 31.833c6.917 0 11.667 3.583 15 3.583s10.333-1.916 10.333-17.249-9.417-17.584-13.083-17.584c-17.167 0-24.5 31.25-12.25 31.25z" fill="#efefef"/><g fill="#a4afc1"><path d="m32.533 6.033h1v2h-1z" transform="matrix(.707 -.707 .707 .707 4.699 25.413)"/><path d="m28.467 1.967h1v2h-1z" transform="matrix(.707 -.707 .707 .707 6.383 21.348)"/><path d="m32.033 2.644h2v1h-2z" transform="matrix(.707 -.707 .707 .707 7.452 24.279)"/></g><path d="m27.25 28.25h-18.5c-1.105 0-2-.895-2-2v-15h22.5v15c0 1.105-.895 2-2 2z" fill="#f3f3f1"/><path d="m6.75 11.25h22.5v-1.5c0-1.105-.895-2-2-2h-18.5c-1.105 0-2 .895-2 2z" fill="#2fdf84"/><path d="m26.25 24.25c0 .55-.45 1-1 1h-5.5c-.55 0-1-.45-1-1v-8.5c0-.55.45-1 1-1h5.5c.55 0 1 .45 1 1z" fill="#2fdf84"/><path d="m11 7.75h-2.25c-1.105 0-2 .895-2 2v1.5h2.25v-1.5c0-1.105.895-2 2-2z" fill="#00b871"/><path d="m21 24.25v-8.5c0-.55.45-1 1-1h-2.25c-.55 0-1 .45-1 1v8.5c0 .55.45 1 1 1h2.25c-.55 0-1-.45-1-1z" fill="#00b871"/><path d="m9 26.25v-15h-2.25v15c0 1.105.895 2 2 2h2.25c-1.105 0-2-.895-2-2z" fill="#d5dbe1"/><path d="m18.831 22.808-1.139-.976 1.57-1.832-1.569-1.832 1.139-.976 1.988 2.319c.241.281.241.695 0 .977z"/><path d="m14 19.25h6.5v1.5h-6.5z"/><path d="m9 19.25h3v1.5h-3z"/><path d="m25.25 26h-6.25v-1.5h6.25c.136 0 .25-.114.25-.25v-8.5c0-.136-.114-.25-.25-.25h-6.25v-1.5h6.25c.965 0 1.75.785 1.75 1.75v8.5c0 .965-.785 1.75-1.75 1.75z"/><path d="m27.25 29h-18.5c-1.517 0-2.75-1.233-2.75-2.75v-16.5c0-1.517 1.233-2.75 2.75-2.75h18.5c1.517 0 2.75 1.233 2.75 2.75v16.5c0 1.517-1.233 2.75-2.75 2.75zm-18.5-20.5c-.689 0-1.25.561-1.25 1.25v16.5c0 .689.561 1.25 1.25 1.25h18.5c.689 0 1.25-.561 1.25-1.25v-16.5c0-.689-.561-1.25-1.25-1.25z"/><path d="m6.75 10.5h22.5v1.5h-22.5z"/></svg>