<svg id="_x31__x2C_5" enable-background="new 0 0 36 36" height="512" viewBox="0 0 36 36" width="512" xmlns="http://www.w3.org/2000/svg"><path d="m4.167 27.623c0-6.917-3.583-11.667-3.583-15s1.916-10.333 17.249-10.333 17.583 9.417 17.583 13.083c.001 17.167-31.249 24.5-31.249 12.25z" fill="#efefef"/><g fill="#a4afc1"><path d="m25.467 4.967h1v2h-1z" transform="matrix(.707 -.707 .707 .707 3.386 20.109)"/><path d="m29.533 9.033h1v2h-1z" transform="matrix(.707 -.707 .707 .707 1.702 24.175)"/><path d="m28.856 5.467h2v1h-2z" transform="matrix(.707 -.707 .707 .707 4.525 22.859)"/><path d="m25.144 9.533h2v1h-2z" transform="matrix(.707 -.707 .707 .707 .563 21.425)"/></g><path d="m27.25 28h-18.5v-11.25c0-.552.448-1 1-1h16.5c.552 0 1 .448 1 1z" fill="#f3f3f1"/><path d="m6.75 11h12.5v-1.25c0-.828-.672-1.5-1.5-1.5h-9.5c-.828 0-1.5.672-1.5 1.5z" fill="#2fdf84"/><path d="m8.25 18.25h9.5c.828 0 1.5-.672 1.5-1.5v-5.75h-12.5v5.75c0 .828.672 1.5 1.5 1.5z" fill="#f3f3f1"/><path d="m10.5 8.25h-2.25c-.828 0-1.5.672-1.5 1.5v1.25h2.25v-1.25c0-.828.672-1.5 1.5-1.5z" fill="#00b871"/><path d="m8.75 18.25h2.25v9.75h-2.25z" fill="#d5dbe1"/><path d="m9 16.75v-5.75h-2.25v5.75c0 .828.672 1.5 1.5 1.5h2.25c-.828 0-1.5-.672-1.5-1.5z" fill="#d5dbe1"/><path d="m28 28.25h-1.5v-11.5c0-.136-.114-.25-.25-.25h-4.25v-1.5h4.25c.965 0 1.75.785 1.75 1.75z"/><path d="m8 21h1.5v7.25h-1.5z"/><path d="m17.75 19h-9.5c-1.241 0-2.25-1.009-2.25-2.25v-7c0-1.241 1.009-2.25 2.25-2.25h9.5c1.241 0 2.25 1.009 2.25 2.25v7c0 1.241-1.009 2.25-2.25 2.25zm-9.5-10c-.414 0-.75.336-.75.75v7c0 .414.336.75.75.75h9.5c.414 0 .75-.336.75-.75v-7c0-.414-.336-.75-.75-.75z"/><path d="m6.75 10.485h12.5v1.5h-12.5z"/><path d="m22.125 21.224h1.5v5.303h-1.5z" transform="matrix(.707 -.707 .707 .707 -10.183 23.168)"/><path d="m21.5 25h-1.5v-3.25c0-.414.336-.75.75-.75h3.25v1.5h-2.5z"/><path d="m6 27.5h24v1.5h-24z"/></svg>