<svg id="_x31__x2C_5" enable-background="new 0 0 36 36" height="512" viewBox="0 0 36 36" width="512" xmlns="http://www.w3.org/2000/svg"><path d="m8.377 4.167c6.917 0 11.667-3.583 15-3.583s10.333 1.916 10.333 17.249-9.417 17.583-13.083 17.583c-17.167.001-24.5-31.249-12.25-31.249z" fill="#efefef"/><g fill="#a4afc1"><path d="m24.467 2.967h1v2h-1z" transform="matrix(.707 -.707 .707 .707 4.505 18.813)"/><path d="m28.533 7.033h1v2h-1z" transform="matrix(.707 -.707 .707 .707 2.821 22.878)"/><path d="m27.856 3.467h2v1h-2z" transform="matrix(.707 -.707 .707 .707 5.647 21.567)"/><path d="m24.143 7.533h2v1h-2z" transform="matrix(.707 -.707 .707 .707 1.684 20.132)"/></g><path d="m19.25 29.25h-1.5c-2.209 0-4-1.791-4-4v-5.5c0-2.209 1.791-4 4-4h1.5c2.209 0 4 1.791 4 4v5.5c0 2.209-1.791 4-4 4z" fill="#f3f3f1"/><path d="m16 25.25v-5.5c0-2.081 1.594-3.77 3.625-3.962-.125-.012-.247-.038-.375-.038h-1.5c-2.209 0-4 1.791-4 4v5.5c0 2.209 1.791 4 4 4h1.5c.128 0 .25-.026.375-.038-2.031-.192-3.625-1.881-3.625-3.962z" fill="#d5dbe1"/><path d="m19.25 30h-1.5c-2.619 0-4.75-2.131-4.75-4.75v-5.5c0-2.619 2.131-4.75 4.75-4.75h1.5c2.619 0 4.75 2.131 4.75 4.75v5.5c0 2.619-2.131 4.75-4.75 4.75zm-1.5-13.5c-1.792 0-3.25 1.458-3.25 3.25v5.5c0 1.792 1.458 3.25 3.25 3.25h1.5c1.792 0 3.25-1.458 3.25-3.25v-5.5c0-1.792-1.458-3.25-3.25-3.25z"/><path d="m17.75 19h1.5v3h-1.5z"/><path d="m19.25 15.75h-1.5v-6.625c0-.896-.729-1.625-1.625-1.625s-1.625.729-1.625 1.625v1.625c0 1.792-1.458 3.25-3.25 3.25s-3.25-1.458-3.25-3.25v-4.75h1.5v4.75c0 .965.785 1.75 1.75 1.75s1.75-.785 1.75-1.75v-1.625c0-1.723 1.402-3.125 3.125-3.125s3.125 1.402 3.125 3.125z"/></svg>