<svg id="_x31__x2C_5" enable-background="new 0 0 36 36" height="512" viewBox="0 0 36 36" width="512" xmlns="http://www.w3.org/2000/svg"><path d="m27.623 4.167c-6.917 0-11.667-3.583-15-3.583s-10.333 1.916-10.333 17.249 9.417 17.583 13.083 17.583c17.167.001 24.5-31.249 12.25-31.249z" fill="#efefef"/><path d="m16.5 4c-.827 0-1.5-.673-1.5-1.5s.673-1.5 1.5-1.5 1.5.673 1.5 1.5-.673 1.5-1.5 1.5zm0-2c-.276 0-.5.224-.5.5s.224.5.5.5.5-.224.5-.5-.224-.5-.5-.5z" fill="#a4afc1"/><g fill="#2fdf84"><path d="m6.75 6.75h2.5v2.5h-2.5z"/><path d="m27.5 20.25c-.69 0-1.25-.56-1.25-1.25 0-.69.56-1.25 1.25-1.25.69 0 1.25.56 1.25 1.25 0 .69-.56 1.25-1.25 1.25z"/><path d="m22.25 29.25-.884-6.632c-.066-.497-.49-.868-.991-.868h-4.749c-.501 0-.925.371-.991.868l-.885 6.632z"/><path d="m8.5 20.25c-.69 0-1.25-.56-1.25-1.25 0-.69.56-1.25 1.25-1.25.69 0 1.25.56 1.25 1.25 0 .69-.56 1.25-1.25 1.25z"/><path d="m26.75 6.75h2.5v2.5h-2.5z"/></g><path d="m19.757 21.75 2.493-3.65-4.25-9.85-4.25 9.85 2.493 3.65z" fill="#f3f3f1"/><path d="m6.75 6.75h2.25v2.5h-2.25z" fill="#00b871"/><path d="m28.5 19c0-.19.049-.365.125-.526-.2-.425-.625-.724-1.125-.724-.69 0-1.25.56-1.25 1.25s.56 1.25 1.25 1.25c.5 0 .925-.299 1.125-.724-.076-.161-.125-.336-.125-.526z" fill="#00b871"/><path d="m17.875 21.75h-2.25c-.501 0-.925.371-.991.868l-.884 6.632h2.25l.884-6.632c.067-.497.49-.868.991-.868z" fill="#00b871"/><path d="m9.5 19c0-.19.049-.365.125-.526-.2-.425-.625-.724-1.125-.724-.69 0-1.25.56-1.25 1.25s.56 1.25 1.25 1.25c.5 0 .925-.299 1.125-.724-.076-.161-.125-.336-.125-.526z" fill="#00b871"/><path d="m26.75 6.75h2.25v2.5h-2.25z" fill="#00b871"/><path d="m19.125 10.857-1.125-2.607-4.25 9.85 2.493 3.65h2.25l-2.493-3.65z" fill="#d5dbe1"/><path d="m28.25 17.5h-1.5c0-4.825-3.925-8.75-8.75-8.75s-8.75 3.925-8.75 8.75h-1.5c0-5.652 4.598-10.25 10.25-10.25s10.25 4.598 10.25 10.25z"/><path d="m9.25 10h-2.5c-.414 0-.75-.336-.75-.75v-2.5c0-.414.336-.75.75-.75h2.5c.414 0 .75.336.75.75v2.5c0 .414-.336.75-.75.75zm-1.75-1.5h1v-1h-1z"/><path d="m27.5 21c-1.103 0-2-.897-2-2s.897-2 2-2 2 .897 2 2-.897 2-2 2zm0-2.5c-.276 0-.5.224-.5.5s.224.5.5.5.5-.224.5-.5-.224-.5-.5-.5z"/><path d="m9.5 7.25h17v1.5h-17z"/><path d="m20.376 22.173-1.238-.846 2.26-3.309-3.398-7.875-3.398 7.875 2.26 3.309-1.238.846-2.493-3.65c-.145-.212-.171-.484-.069-.72l4.25-9.85c.237-.549 1.14-.549 1.377 0l4.25 9.85c.102.236.076.508-.069.72z"/><path d="m21.605 30.093-.983-7.376c-.016-.124-.123-.217-.248-.217h-4.749c-.125 0-.231.093-.248.217l-.983 7.375-1.487-.198.983-7.376c.117-.865.862-1.518 1.735-1.518h4.749c.873 0 1.619.653 1.734 1.518l.984 7.376z"/><path d="m17.25 8.75h1.5v8.25h-1.5z"/><path d="m8.5 21c-1.103 0-2-.897-2-2s.897-2 2-2 2 .897 2 2-.897 2-2 2zm0-2.5c-.276 0-.5.224-.5.5s.224.5.5.5.5-.224.5-.5-.224-.5-.5-.5z"/><path d="m29.25 10h-2.5c-.414 0-.75-.336-.75-.75v-2.5c0-.414.336-.75.75-.75h2.5c.414 0 .75.336.75.75v2.5c0 .414-.336.75-.75.75zm-1.75-1.5h1v-1h-1z"/><path d="m2 28.75h32v1.5h-32z"/></svg>