<svg id="_x31__x2C_5" enable-background="new 0 0 36 36" height="512" viewBox="0 0 36 36" width="512" xmlns="http://www.w3.org/2000/svg"><path d="m31.833 27.623c0-6.917 3.583-11.667 3.583-15s-1.916-10.333-17.249-10.333-17.584 9.417-17.584 13.083c0 17.167 31.25 24.5 31.25 12.25z" fill="#efefef"/><g fill="#a4afc1"><path d="m28.467 1.967h1v2h-1z" transform="matrix(.707 -.707 .707 .707 6.386 21.352)"/><path d="m32.533 6.033h1v2h-1z" transform="matrix(.707 -.707 .707 .707 4.702 25.418)"/><path d="m31.856 2.467h2v1h-2z" transform="matrix(.707 -.707 .707 .707 7.525 24.102)"/></g><path d="m8.75 6.75h18.5c1.105 0 2 .895 2 2v3c0 1.105-.895 2-2 2h-18.5c-1.105 0-2-.895-2-2v-3c0-1.105.895-2 2-2z" fill="#f3f3f1"/><path d="m8.75 13.75h18.5c1.105 0 2 .895 2 2v2.5c0 1.105-.895 2-2 2h-18.5c-1.105 0-2-.895-2-2v-2.5c0-1.105.895-2 2-2z" fill="#f3f3f1"/><path d="m8.75 20.25h17.5c1.105 0 2 .895 2 2v3c0 1.105-.895 2-2 2h-17.5c-1.105 0-2-.895-2-2v-3c0-1.105.895-2 2-2z" fill="#f3f3f1"/><circle cx="24.5" cy="24.5" fill="#2fdf84" r="4.75"/><path d="m22 24.5c0-2.234 1.547-4.094 3.625-4.601-.362-.089-.735-.149-1.125-.149-2.623 0-4.75 2.127-4.75 4.75s2.127 4.75 4.75 4.75c.39 0 .763-.06 1.125-.149-2.078-.507-3.625-2.367-3.625-4.601z" fill="#00b871"/><path d="m9 11.75v-3c0-1.105.895-2 2-2h-2.25c-1.105 0-2 .895-2 2v3c0 1.105.895 2 2 2h2.25c-1.105 0-2-.895-2-2z" fill="#d5dbe1"/><path d="m9 18.25v-2.5c0-1.105.895-2 2-2h-2.25c-1.105 0-2 .895-2 2v2.5c0 1.105.895 2 2 2h2.25c-1.105 0-2-.895-2-2z" fill="#d5dbe1"/><path d="m9 25.25v-3c0-1.105.895-2 2-2h-2.25c-1.105 0-2 .895-2 2v3c0 1.105.895 2 2 2h2.25c-1.105 0-2-.895-2-2z" fill="#d5dbe1"/><path d="m17 28h-8.25c-1.516 0-2.75-1.233-2.75-2.75v-3c0-1.517 1.234-2.75 2.75-2.75h9.33v1.5h-9.33c-.689 0-1.25.561-1.25 1.25v3c0 .689.561 1.25 1.25 1.25h8.25z"/><path d="m18.08 21h-9.33c-1.517 0-2.75-1.233-2.75-2.75v-2.5c0-1.517 1.233-2.75 2.75-2.75h18.5c1.517 0 2.75 1.233 2.75 2.75v2.25h-1.5v-2.25c0-.689-.561-1.25-1.25-1.25h-18.5c-.689 0-1.25.561-1.25 1.25v2.5c0 .689.561 1.25 1.25 1.25h9.33z"/><path d="m27.25 14.5h-18.5c-1.517 0-2.75-1.233-2.75-2.75v-3c0-1.517 1.233-2.75 2.75-2.75h18.5c1.517 0 2.75 1.233 2.75 2.75v3c0 1.517-1.233 2.75-2.75 2.75zm-18.5-7c-.689 0-1.25.561-1.25 1.25v3c0 .689.561 1.25 1.25 1.25h18.5c.689 0 1.25-.561 1.25-1.25v-3c0-.689-.561-1.25-1.25-1.25z"/><path d="m12 6.75h1.5v20.5h-1.5z"/><path d="m24.5 30c-3.033 0-5.5-2.467-5.5-5.5s2.467-5.5 5.5-5.5 5.5 2.467 5.5 5.5-2.467 5.5-5.5 5.5zm0-9.5c-2.206 0-4 1.794-4 4s1.794 4 4 4 4-1.794 4-4-1.794-4-4-4z"/><path d="m23.75 22h1.5v5h-1.5z"/><path d="m22 23.75h5v1.5h-5z"/></svg>