<svg id="_x31__x2C_5" enable-background="new 0 0 36 36" height="512" viewBox="0 0 36 36" width="512" xmlns="http://www.w3.org/2000/svg"><path d="m27.623 31.833c-6.917 0-11.667 3.583-15 3.583s-10.333-1.916-10.333-17.249 9.417-17.584 13.083-17.584c17.167 0 24.5 31.25 12.25 31.25z" fill="#efefef"/><path d="m33.5 13c-.827 0-1.5-.673-1.5-1.5s.673-1.5 1.5-1.5 1.5.673 1.5 1.5-.673 1.5-1.5 1.5zm0-2c-.276 0-.5.224-.5.5s.224.5.5.5.5-.224.5-.5-.224-.5-.5-.5z" fill="#a4afc1"/><path d="m27.25 26.5h-18.5c-1.105 0-2-.895-2-2v-14.5h22.5v14.5c0 1.105-.895 2-2 2z" fill="#f3f3f1"/><path d="m6.75 10h22.5v-1.5c0-1.105-.895-2-2-2h-18.5c-1.105 0-2 .895-2 2z" fill="#2fdf84"/><path d="m6.75 18.75v8.5h2.75l2-7.386s-1.458-1.114-4.75-1.114z" fill="#2fdf84"/><path d="m26.75 24c-1.298 0-2.805.628-4.25 1.071v-.431c0-.95-.67-1.77-1.6-1.96l-9.63-1.97-1.49 5.42c1.91.9 6.83 3.12 9.22 3.12 3 0 10.25-4 10.25-4s-.5-1.25-2.5-1.25z" fill="#f3f3f1"/><path d="m11 6.5h-2.25c-1.105 0-2 .895-2 2v1.5h2.25v-1.5c0-1.105.895-2 2-2z" fill="#00b871"/><path d="m6.75 18.75v8.5h2.25v-8.3c-.626-.117-1.367-.2-2.25-.2z" fill="#00b871"/><path d="m6.75 10h2.25v9h-2.25z" fill="#d5dbe1"/><path d="m12.03 26.13 1.37-4.984-2.13-.436-1.49 5.42c1.91.9 6.83 3.12 9.22 3.12.314 0 .683-.052 1.077-.131-2.571-.483-6.411-2.218-8.047-2.989z" fill="#d5dbe1"/><path d="m9.5 28h-2.75c-.414 0-.75-.336-.75-.75v-8.5c0-.414.336-.75.75-.75 3.505 0 5.138 1.216 5.205 1.268.242.185.349.498.269.792l-2 7.386c-.089.327-.385.554-.724.554zm-2-1.5h1.426l1.698-6.271c-.523-.247-1.546-.615-3.125-.707v6.978z"/><path d="m19 30c-2.406 0-7.01-2-9.54-3.191l.64-1.357c4.112 1.938 7.356 3.049 8.9 3.049 2.028 0 6.632-2.191 9.044-3.455-.278-.159-.692-.295-1.294-.295-.878 0-1.963.362-3.013.711-1.163.388-2.366.789-3.487.789-2.108 0-4.889-1.002-5.006-1.045l.512-1.41c.026.01 2.652.955 4.494.955.878 0 1.963-.362 3.013-.711 1.163-.388 2.366-.789 3.487-.789 2.479 0 3.168 1.651 3.196 1.722.141.351-.002.752-.334.935-.302.166-7.455 4.092-10.612 4.092z"/><path d="m23.25 25.09h-1.5v-.45c0-.591-.42-1.107-1-1.225l-9.63-1.97.301-1.47 9.63 1.97c1.274.26 2.2 1.394 2.2 2.695v.45z"/><path d="m30 21h-1.5v-12.25c0-.689-.561-1.25-1.25-1.25h-18.5c-.689 0-1.25.561-1.25 1.25v6.25h-1.5v-6.25c0-1.517 1.233-2.75 2.75-2.75h18.5c1.517 0 2.75 1.233 2.75 2.75z"/><path d="m6.75 9.5h22.5v1.5h-22.5z"/></svg>