<svg id="_x31__x2C_5" enable-background="new 0 0 36 36" height="512" viewBox="0 0 36 36" width="512" xmlns="http://www.w3.org/2000/svg"><path d="m31.833 8.377c0 6.917 3.583 11.667 3.583 15s-1.916 10.333-17.249 10.333-17.584-9.417-17.584-13.083c0-17.167 31.25-24.5 31.25-12.25z" fill="#efefef"/><path d="m29.625 2.25h1v2h-1z" fill="#a4afc1"/><path d="m31.875 5.25h2v1h-2z" fill="#a4afc1"/><g fill="#f3f3f1"><path d="m8.75 6.75h18.5c1.105 0 2 .895 2 2v4h-22.5v-4c0-1.105.895-2 2-2z"/><path d="m6.75 12.75h22.5v5.5h-22.5z" transform="matrix(-1 0 0 -1 36 31)"/><path d="m6.75 18.25h22.5v4c0 1.105-.895 2-2 2h-18.5c-1.105 0-2-.895-2-2z"/></g><path d="m21.25 29.25h-6.5c-1.105 0-2-.895-2-2v-3h10.5v3c0 1.105-.895 2-2 2z" fill="#2fdf84"/><path d="m15 27.25v-3h-2.25v3c0 1.105.895 2 2 2h2.25c-1.105 0-2-.895-2-2z" fill="#00b871"/><path d="m11 6.75h-2.25c-1.105 0-2 .895-2 2v4h2.25v-4c0-1.105.895-2 2-2z" fill="#d5dbe1"/><path d="m6.75 12.75h2.25v5.5h-2.25z" fill="#d5dbe1"/><path d="m9 22.25v-4h-2.25v4c0 1.105.895 2 2 2h2.25c-1.105 0-2-.895-2-2z" fill="#d5dbe1"/><path d="m29.25 13.5h-22.5c-.414 0-.75-.336-.75-.75v-4c0-1.517 1.233-2.75 2.75-2.75h18.5c1.517 0 2.75 1.233 2.75 2.75v4c0 .414-.336.75-.75.75zm-21.75-1.5h21v-3.25c0-.689-.561-1.25-1.25-1.25h-18.5c-.689 0-1.25.561-1.25 1.25z"/><path d="m29.25 19h-22.5c-.414 0-.75-.336-.75-.75v-5.5c0-.414.336-.75.75-.75h22.5c.414 0 .75.336.75.75v5.5c0 .414-.336.75-.75.75zm-21.75-1.5h21v-4h-21z"/><path d="m27.25 25h-18.5c-1.517 0-2.75-1.233-2.75-2.75v-4c0-.414.336-.75.75-.75h22.5c.414 0 .75.336.75.75v4c0 1.517-1.233 2.75-2.75 2.75zm-19.75-6v3.25c0 .689.561 1.25 1.25 1.25h18.5c.689 0 1.25-.561 1.25-1.25v-3.25z"/><path d="m21.25 30h-6.5c-1.517 0-2.75-1.233-2.75-2.75v-3c0-.414.336-.75.75-.75h10.5c.414 0 .75.336.75.75v3c0 1.517-1.233 2.75-2.75 2.75zm-7.75-5v2.25c0 .689.561 1.25 1.25 1.25h6.5c.689 0 1.25-.561 1.25-1.25v-2.25z"/><path d="m17.25 24.25h1.5v2.769h-1.5z"/></svg>