<svg id="_x31__x2C_5" enable-background="new 0 0 36 36" height="512" viewBox="0 0 36 36" width="512" xmlns="http://www.w3.org/2000/svg"><path d="m27.623 4.167c-6.917 0-11.667-3.583-15-3.583s-10.333 1.916-10.333 17.249 9.417 17.583 13.083 17.583c17.167.001 24.5-31.249 12.25-31.249z" fill="#efefef"/><g fill="#a4afc1"><path d="m28.467 1.967h1v2h-1z" transform="matrix(.707 -.707 .707 .707 6.383 21.348)"/><path d="m32.533 6.033h1v2h-1z" transform="matrix(.707 -.707 .707 .707 4.699 25.413)"/><path d="m31.856 2.467h2v1h-2z" transform="matrix(.707 -.707 .707 .707 7.525 24.102)"/></g><path d="m27.25 29h-18.5c-1.105 0-2-.895-2-2v-18.25c0-1.105.895-2 2-2h18.5c1.105 0 2 .895 2 2v18.25c0 1.105-.895 2-2 2z" fill="#f3f3f1"/><path d="m9 27v-18.25c0-1.105.895-2 2-2h-2.25c-1.105 0-2 .895-2 2v18.25c0 1.105.895 2 2 2h2.25c-1.105 0-2-.895-2-2z" fill="#d5dbe1"/><path d="m12.1 19.05-1.949-2.6c-.2-.267-.2-.633 0-.9l1.949-2.6 1.2.9-1.612 2.15 1.612 2.15z"/><path d="m23.9 19.05-1.2-.9 1.613-2.15-1.613-2.15 1.2-.9 1.949 2.6c.2.267.2.633 0 .9z"/><path d="m13 26.25c-.689 0-1.25-.561-1.25-1.25s.561-1.25 1.25-1.25 1.25.561 1.25 1.25-.561 1.25-1.25 1.25zm0-1.5c-.138 0-.25.112-.25.25 0 .275.5.275.5 0 0-.138-.112-.25-.25-.25z"/><path d="m18 26.25c-.689 0-1.25-.561-1.25-1.25s.561-1.25 1.25-1.25 1.25.561 1.25 1.25-.561 1.25-1.25 1.25zm0-1.5c-.138 0-.25.112-.25.25 0 .275.5.275.5 0 0-.138-.112-.25-.25-.25z"/><path d="m23 26.25c-.689 0-1.25-.561-1.25-1.25s.561-1.25 1.25-1.25 1.25.561 1.25 1.25-.561 1.25-1.25 1.25zm0-1.5c-.138 0-.25.112-.25.25 0 .275.5.275.5 0 0-.138-.112-.25-.25-.25z"/><path d="m27.25 30h-18.5c-1.517 0-2.75-1.233-2.75-2.75v-18.5c0-1.517 1.233-2.75 2.75-2.75h18.5c1.517 0 2.75 1.233 2.75 2.75v18.5c0 1.517-1.233 2.75-2.75 2.75zm-18.5-22.5c-.689 0-1.25.561-1.25 1.25v18.5c0 .689.561 1.25 1.25 1.25h18.5c.689 0 1.25-.561 1.25-1.25v-18.5c0-.689-.561-1.25-1.25-1.25z"/></svg>