<svg id="_x31__x2C_5" enable-background="new 0 0 36 36" height="512" viewBox="0 0 36 36" width="512" xmlns="http://www.w3.org/2000/svg"><path d="m4.167 8.377c0 6.917-3.583 11.667-3.583 15s1.916 10.333 17.249 10.333 17.583-9.417 17.583-13.083c.001-17.167-31.249-24.5-31.249-12.25z" fill="#efefef"/><path d="m19.5 5c-.827 0-1.5-.673-1.5-1.5s.673-1.5 1.5-1.5 1.5.673 1.5 1.5-.673 1.5-1.5 1.5zm0-2c-.275 0-.5.224-.5.5s.225.5.5.5.5-.224.5-.5-.225-.5-.5-.5z" fill="#a4afc1"/><path d="m22.25 27.25h-8.5c-1.105 0-2-.895-2-2v-14.5c0-1.105.895-2 2-2h8.5c1.105 0 2 .895 2 2v14.5c0 1.105-.895 2-2 2z" fill="#2fdf84"/><path d="m14 25.25v-14.5c0-1.105.895-2 2-2h-2.25c-1.105 0-2 .895-2 2v14.5c0 1.105.895 2 2 2h2.25c-1.105 0-2-.895-2-2z" fill="#00b871"/><path d="m27.9 21.05-1.2-.9 1.613-2.15-1.613-2.15 1.2-.9 1.949 2.6c.2.267.2.633 0 .9z"/><path d="m8.1 21.05-1.949-2.6c-.2-.267-.2-.633 0-.9l1.949-2.6 1.2.9-1.612 2.15 1.612 2.15z"/><path d="m22.25 28h-8.5c-1.517 0-2.75-1.233-2.75-2.75v-14.5c0-1.517 1.233-2.75 2.75-2.75h8.5c1.517 0 2.75 1.233 2.75 2.75v14.5c0 1.517-1.233 2.75-2.75 2.75zm-8.5-18.5c-.689 0-1.25.561-1.25 1.25v14.5c0 .689.561 1.25 1.25 1.25h8.5c.689 0 1.25-.561 1.25-1.25v-14.5c0-.689-.561-1.25-1.25-1.25z"/></svg>