<svg id="_x31__x2C_5" enable-background="new 0 0 36 36" height="512" viewBox="0 0 36 36" width="512" xmlns="http://www.w3.org/2000/svg"><path d="m4.167 27.623c0-6.917-3.583-11.667-3.583-15s1.916-10.333 17.249-10.333 17.583 9.417 17.583 13.083c.001 17.167-31.249 24.5-31.249 12.25z" fill="#efefef"/><path d="m6.375 6.25h1v2h-1z" fill="#a4afc1"/><path d="m3.125 9.25h2v1h-2z" fill="#a4afc1"/><path d="m8.75 22.25v-8.5c0-1.105.895-2 2-2h14.5c1.105 0 2 .895 2 2v8.5c0 1.105-.895 2-2 2h-14.5c-1.105 0-2-.895-2-2z" fill="#f3f3f1"/><path d="m11 22.25v-8.5c0-1.105.895-2 2-2h-2.25c-1.105 0-2 .895-2 2v8.5c0 1.105.895 2 2 2h2.25c-1.105 0-2-.895-2-2z" fill="#d5dbe1"/><path d="m18 30c-.158 0-.316-.05-.45-.15l-2.6-1.95.899-1.2 2.151 1.613 2.15-1.612.899 1.2-2.6 1.95c-.133.099-.291.149-.449.149z"/><path d="m20.15 9.3-2.15-1.612-2.15 1.612-.9-1.2 2.6-1.95c.268-.2.633-.2.9 0l2.6 1.95z"/><path d="m25.25 25h-14.5c-1.517 0-2.75-1.233-2.75-2.75v-8.5c0-1.517 1.233-2.75 2.75-2.75h14.5c1.517 0 2.75 1.233 2.75 2.75v8.5c0 1.517-1.233 2.75-2.75 2.75zm-14.5-12.5c-.689 0-1.25.561-1.25 1.25v8.5c0 .689.561 1.25 1.25 1.25h14.5c.689 0 1.25-.561 1.25-1.25v-8.5c0-.689-.561-1.25-1.25-1.25z"/></svg>