<svg id="_x31__x2C_5" enable-background="new 0 0 36 36" height="512" viewBox="0 0 36 36" width="512" xmlns="http://www.w3.org/2000/svg"><path d="m31.833 8.377c0 6.917 3.583 11.667 3.583 15s-1.916 10.333-17.249 10.333-17.584-9.417-17.584-13.083c0-17.167 31.25-24.5 31.25-12.25z" fill="#efefef"/><path d="m3.497 6c-.331 0-.652-.109-.918-.316-.316-.246-.518-.601-.567-.998-.05-.397.058-.79.304-1.107.246-.316.601-.518.998-.567s.79.058 1.107.304.518.601.567.998c.05.397-.059.791-.304 1.107-.246.316-.601.518-.998.567-.063.008-.126.012-.189.012zm.003-2c-.021 0-.041.001-.062.004-.273.034-.468.285-.434.558s.285.468.558.434.468-.285.434-.558c-.032-.252-.247-.438-.496-.438z" fill="#a4afc1"/><path d="m18.897 7.839 1.969-.895c1.142-.519 2.485.037 2.926 1.212l.76 2.025c.22.586.682 1.048 1.268 1.268l2.025.76c1.175.441 1.731 1.784 1.212 2.926l-.895 1.969c-.259.57-.259 1.223 0 1.793l.895 1.969c.519 1.142-.037 2.485-1.212 2.926l-2.025.76c-.586.22-1.048.682-1.268 1.268l-.76 2.025c-.441 1.175-1.784 1.731-2.926 1.212l-1.969-.895c-.57-.259-1.223-.259-1.793 0l-1.969.895c-1.142.519-2.485-.037-2.926-1.212l-.76-2.025c-.22-.586-.682-1.048-1.268-1.268l-2.025-.76c-1.175-.441-1.731-1.784-1.212-2.926l.895-1.969c.259-.57.259-1.223 0-1.793l-.895-1.969c-.519-1.142.037-2.485 1.212-2.926l2.025-.76c.586-.22 1.048-.682 1.268-1.268l.76-2.025c.441-1.175 1.784-1.731 2.926-1.212l1.969.895c.569.259 1.223.259 1.793 0z" fill="#f3f3f1"/><path d="m15.75 20.5h13.5v-1.25c0-.828-.672-1.5-1.5-1.5h-10.5c-.828 0-1.5.672-1.5 1.5z" fill="#2fdf84"/><path d="m17.25 29.25h10.5c.828 0 1.5-.672 1.5-1.5v-7.25h-13.5v7.25c0 .828.672 1.5 1.5 1.5z" fill="#f3f3f1"/><path d="m19.5 17.75h-2.25c-.828 0-1.5.672-1.5 1.5v1.25h2.25v-1.25c0-.828.672-1.5 1.5-1.5z" fill="#00b871"/><path d="m14.459 27.843-.76-2.025c-.22-.586-.682-1.048-1.268-1.268l-2.025-.76c-1.175-.441-1.731-1.784-1.212-2.926l.894-1.969c.259-.57.259-1.223 0-1.793l-.894-1.969c-.519-1.142.037-2.485 1.212-2.926l2.025-.76c.586-.22 1.048-.682 1.268-1.268l.76-2.025c.181-.484.52-.854.93-1.096l-.254-.115c-1.142-.519-2.485.037-2.926 1.212l-.76 2.025c-.22.586-.682 1.048-1.268 1.268l-2.025.76c-1.175.441-1.731 1.784-1.212 2.926l.894 1.969c.259.57.259 1.223 0 1.793l-.894 1.969c-.519 1.142.037 2.485 1.212 2.926l2.025.76c.586.22 1.048.682 1.268 1.268l.76 2.025c.441 1.175 1.784 1.731 2.926 1.212l.254-.115c-.41-.243-.749-.614-.93-1.098z" fill="#d5dbe1"/><path d="m18 27.75v-7.25h-2.25v7.25c0 .828.672 1.5 1.5 1.5h2.25c-.828 0-1.5-.672-1.5-1.5z" fill="#d5dbe1"/><path d="m27.75 30h-10.5c-1.241 0-2.25-1.009-2.25-2.25v-8.5c0-1.241 1.009-2.25 2.25-2.25h10.5c1.241 0 2.25 1.009 2.25 2.25v8.5c0 1.241-1.009 2.25-2.25 2.25zm-10.5-11.5c-.414 0-.75.336-.75.75v8.5c0 .414.336.75.75.75h10.5c.414 0 .75-.336.75-.75v-8.5c0-.414-.336-.75-.75-.75z"/><path d="m15.75 19.985h13.5v1.5h-13.5z"/><path d="m12.438 29.619c-.368-.547-.827-1.252-.926-1.506l-.763-2.029c-.144-.386-.446-.688-.83-.832l-2.022-.76c-.761-.284-1.354-.854-1.669-1.604-.311-.742-.301-1.589.028-2.324l.902-1.976c.171-.374.171-.803 0-1.177l-.9-1.97c-.332-.74-.342-1.587-.031-2.33.314-.75.908-1.32 1.671-1.604l2.018-.759c.386-.144.688-.446.832-.83l.76-2.022c.284-.761.854-1.354 1.604-1.669.742-.311 1.589-.301 2.324.028l1.976.902c.374.171.803.171 1.177 0l1.97-.9c.741-.331 1.588-.341 2.33-.031.75.314 1.32.908 1.604 1.671l.759 2.018c.144.386.446.688.83.832l2.022.76c1.365.512 2.146 1.967 1.816 3.383l-1.461-.341c.16-.685-.22-1.389-.883-1.638l-2.021-.76c-.79-.295-1.413-.918-1.708-1.71l-.759-2.018c-.139-.373-.416-.661-.779-.814-.367-.153-.769-.148-1.132.014l-1.965.897c-.77.352-1.653.352-2.423 0l-1.97-.9c-.358-.16-.76-.165-1.127-.012-.364.153-.641.441-.779.812l-.76 2.022c-.295.79-.918 1.413-1.71 1.708l-2.018.759c-.373.139-.661.416-.814.779-.153.367-.148.769.014 1.132l.897 1.965c.352.77.352 1.653 0 2.423l-.9 1.97c-.16.358-.165.76-.012 1.127.153.364.441.641.812.779l2.022.76c.79.295 1.413.918 1.708 1.71l.759 2.018c.054.113.445.723.771 1.206z"/></svg>