<svg id="_x31__x2C_5" enable-background="new 0 0 36 36" height="512" viewBox="0 0 36 36" width="512" xmlns="http://www.w3.org/2000/svg"><path d="m8.377 4.167c6.917 0 11.667-3.583 15-3.583s10.333 1.916 10.333 17.249-9.417 17.583-13.083 17.583c-17.167.001-24.5-31.249-12.25-31.249z" fill="#efefef"/><path d="m33.5 20c-.827 0-1.5-.673-1.5-1.5s.673-1.5 1.5-1.5 1.5.673 1.5 1.5-.673 1.5-1.5 1.5zm0-2c-.275 0-.5.225-.5.5s.225.5.5.5.5-.225.5-.5-.225-.5-.5-.5z" fill="#a4afc1"/><path d="m27.25 27.25h-18.5c-1.105 0-2-.895-2-2v-15h22.5v15c0 1.105-.895 2-2 2z" fill="#f3f3f1"/><g fill="#2fdf84"><path d="m6.75 10.25h22.5v-1.5c0-1.105-.895-2-2-2h-18.5c-1.105 0-2 .895-2 2z"/><circle cx="25" cy="24.5" r="2.75"/><path d="m12.804 21.25c-1.137 0-2.054-.871-2.054-1.95s.918-1.95 2.054-1.95h.037c.219-1.473 1.548-2.6 3.159-2.6 1.278 0 2.383.711 2.89 1.742 1.319.069 2.36 1.105 2.36 2.375 0 1.317-1.123 2.383-2.511 2.383z"/></g><path d="m11 6.75h-2.25c-1.105 0-2 .895-2 2v1.5h2.25v-1.5c0-1.105.895-2 2-2z" fill="#00b871"/><path d="m24.5 24.5c0-1.117.669-2.074 1.625-2.504-.344-.155-.723-.246-1.125-.246-1.519 0-2.75 1.231-2.75 2.75s1.231 2.75 2.75 2.75c.402 0 .781-.091 1.125-.246-.956-.43-1.625-1.387-1.625-2.504z" fill="#00b871"/><path d="m13 19.3c0-1.079.918-1.95 2.054-1.95h.037c.165-1.107.956-2.018 2.023-2.403-.348-.123-.721-.197-1.114-.197-1.612 0-2.94 1.127-3.159 2.6h-.037c-1.137 0-2.054.871-2.054 1.95s.918 1.95 2.054 1.95h2.25c-1.136 0-2.054-.871-2.054-1.95z" fill="#00b871"/><path d="m9 25.25v-15h-2.25v15c0 1.105.895 2 2 2h2.25c-1.105 0-2-.895-2-2z" fill="#d5dbe1"/><path d="m18 28h-9.25c-1.517 0-2.75-1.233-2.75-2.75v-16.5c0-1.517 1.233-2.75 2.75-2.75h18.5c1.517 0 2.75 1.233 2.75 2.75v10.24h-1.5v-10.24c0-.689-.561-1.25-1.25-1.25h-18.5c-.689 0-1.25.561-1.25 1.25v16.5c0 .689.561 1.25 1.25 1.25h9.25z"/><path d="m6.75 9.5h22.5v1.5h-22.5z"/><path d="m25 28c-1.93 0-3.5-1.57-3.5-3.5s1.57-3.5 3.5-3.5 3.5 1.57 3.5 3.5-1.57 3.5-3.5 3.5zm0-5.5c-1.103 0-2 .897-2 2s.897 2 2 2 2-.897 2-2-.897-2-2-2z"/><path d="m24.25 26.5h1.5v3.5h-1.5z"/><path d="m24.25 19h1.5v3.5h-1.5z"/><path d="m26.505 21.88h3.62v1.499h-3.62z" transform="matrix(.882 -.472 .472 .882 -7.325 16.025)"/><path d="m19.875 25.62h3.62v1.499h-3.62z" transform="matrix(.882 -.472 .472 .882 -9.872 13.341)"/><path d="m20.935 20.82h1.499v3.62h-1.499z" transform="matrix(.472 -.882 .882 .472 -8.496 31.082)"/><path d="m27.565 24.56h1.499v3.62h-1.499z" transform="matrix(.472 -.882 .882 .472 -8.291 38.905)"/><path d="m18 22h-5.2c-1.544 0-2.8-1.211-2.8-2.7 0-1.303.962-2.393 2.236-2.646.505-1.548 2.027-2.654 3.764-2.654 1.369 0 2.643.691 3.354 1.792 1.412.261 2.513 1.408 2.633 2.814l-1.494.127c-.068-.804-.775-1.446-1.646-1.494-.27-.016-.511-.174-.63-.416-.397-.803-1.268-1.323-2.217-1.323-1.212 0-2.251.843-2.418 1.961-.056.367-.371.639-.742.639-.757 0-1.34.538-1.34 1.2s.583 1.2 1.3 1.2h5.2z"/></svg>