<svg id="_x31__x2C_5" enable-background="new 0 0 36 36" height="512" viewBox="0 0 36 36" width="512" xmlns="http://www.w3.org/2000/svg"><path d="m31.833 27.623c0-6.917 3.583-11.667 3.583-15s-1.916-10.333-17.249-10.333-17.584 9.417-17.584 13.083c0 17.167 31.25 24.5 31.25 12.25z" fill="#efefef"/><g fill="#a4afc1"><path d="m1.125 5.5h2v1h-2z"/><path d="m6.875 5.5h2v1h-2z"/><path d="m4.375 2.25h1v2h-1z"/><path d="m4.625 7.75h1v2h-1z"/></g><path d="m25.25 26.25h-14.5c-1.105 0-2-.895-2-2v-10h18.5v10c0 1.105-.895 2-2 2z" fill="#f3f3f1"/><path d="m8.75 14.25h18.5v-1.5c0-1.105-.895-2-2-2h-14.5c-1.105 0-2 .895-2 2z" fill="#2fdf84"/><path d="m13 10.75h-2.25c-1.105 0-2 .895-2 2v1.5h2.25v-1.5c0-1.105.895-2 2-2z" fill="#00b871"/><path d="m11 24.25v-10h-2.25v10c0 1.105.895 2 2 2h2.25c-1.105 0-2-.895-2-2z" fill="#d5dbe1"/><path d="m9.623 26.754c-.986-.443-1.623-1.426-1.623-2.504v-11.5c0-1.516 1.233-2.75 2.75-2.75h14.25v1.5h-14.25c-.689 0-1.25.561-1.25 1.25v11.5c0 .489.29.935.738 1.136z"/><path d="m25.25 27h-11.25v-1.5h11.25c.689 0 1.25-.561 1.25-1.25v-11.25h1.5v11.25c0 1.517-1.233 2.75-2.75 2.75z"/><path d="m26 13.5h1.25v1.5h-1.25z"/><path d="m8.75 13.5h12.75v1.5h-12.75z"/><path d="m1.737 17.25h32.527v1.5h-32.527z" transform="matrix(.707 -.707 .707 .707 -7.456 18)"/></svg>