<svg id="_x31__x2C_5" enable-background="new 0 0 36 36" height="512" viewBox="0 0 36 36" width="512" xmlns="http://www.w3.org/2000/svg"><path d="m4.167 8.377c0 6.917-3.583 11.667-3.583 15s1.916 10.333 17.249 10.333 17.583-9.417 17.583-13.083c.001-17.167-31.249-24.5-31.249-12.25z" fill="#efefef"/><path d="m29.875 2h1v2h-1z" fill="#a4afc1"/><path d="m32.125 5h2v1h-2z" fill="#a4afc1"/><path d="m29.25 21.25v-10.5c0-1.1-.9-2-2-2h-11.5l-2-2h-5c-1.1 0-2 .9-2 2v12.5c0 1.1.9 2 2 2h18.5c1.105 0 2-.895 2-2z" fill="#f3f3f1"/><path d="m15.75 20.5h13.5v-1.25c0-.828-.672-1.5-1.5-1.5h-10.5c-.828 0-1.5.672-1.5 1.5z" fill="#2fdf84"/><path d="m17.25 29.25h10.5c.828 0 1.5-.672 1.5-1.5v-7.25h-13.5v7.25c0 .828.672 1.5 1.5 1.5z" fill="#f3f3f1"/><path d="m19.5 17.75h-2.25c-.828 0-1.5.672-1.5 1.5v1.25h2.25v-1.25c0-.828.672-1.5 1.5-1.5z" fill="#00b871"/><path d="m9 21.25v-12.5c0-1.1.9-2 2-2h-2.25c-1.1 0-2 .9-2 2v12.5c0 1.1.9 2 2 2h2.25c-1.1 0-2-.9-2-2z" fill="#d5dbe1"/><path d="m18 27.75v-7.25h-2.25v7.25c0 .828.672 1.5 1.5 1.5h2.25c-.828 0-1.5-.672-1.5-1.5z" fill="#d5dbe1"/><path d="m13 24h-4.25c-1.517 0-2.75-1.233-2.75-2.75v-12.5c0-1.517 1.233-2.75 2.75-2.75h5c.199 0 .39.079.53.22l1.781 1.78h11.189c1.517 0 2.75 1.233 2.75 2.75v4.25h-1.5v-4.25c0-.689-.561-1.25-1.25-1.25h-11.5c-.199 0-.39-.079-.53-.22l-1.78-1.78h-4.69c-.689 0-1.25.561-1.25 1.25v12.5c0 .689.561 1.25 1.25 1.25h4.25z"/><path d="m27.75 30h-10.5c-1.24 0-2.25-1.009-2.25-2.25v-8.5c0-1.241 1.01-2.25 2.25-2.25h10.5c1.24 0 2.25 1.009 2.25 2.25v8.5c0 1.241-1.01 2.25-2.25 2.25zm-10.5-11.5c-.413 0-.75.336-.75.75v8.5c0 .414.337.75.75.75h10.5c.413 0 .75-.336.75-.75v-8.5c0-.414-.337-.75-.75-.75z"/><path d="m15.75 20h13.5v1.5h-13.5z"/></svg>