<svg id="_x31__x2C_5" enable-background="new 0 0 36 36" height="512" viewBox="0 0 36 36" width="512" xmlns="http://www.w3.org/2000/svg"><path d="m27.623 4.167c-6.917 0-11.667-3.583-15-3.583s-10.333 1.916-10.333 17.249 9.417 17.583 13.083 17.583c17.167.001 24.5-31.249 12.25-31.249z" fill="#efefef"/><path d="m29.625 2.25h1v2h-1z" fill="#a4afc1"/><path d="m31.875 5.25h2v1h-2z" fill="#a4afc1"/><path d="m19.25 25.25c0-1.747.65-3.46 1.827-4.751 1.327-1.457 2.173-3.37 2.173-5.469 0-5.069-4.571-9.07-9.816-8.106-3.033.558-5.556 2.845-6.374 5.819-.82 2.981.084 5.794 1.878 7.767 1.17 1.287 1.812 3.002 1.812 4.741h8.5z" fill="#2fdf84"/><path d="m17.25 29.25h-4.5c-1.105 0-2-.895-2-2v-2h8.5v2c0 1.105-.895 2-2 2z" fill="#f3f3f1"/><path d="m15.75 9.5h13.5v-1.25c0-.828-.672-1.5-1.5-1.5h-10.5c-.828 0-1.5.672-1.5 1.5z" fill="#2fdf84"/><path d="m17.25 18.25h10.5c.828 0 1.5-.672 1.5-1.5v-7.25h-13.5v7.25c0 .828.672 1.5 1.5 1.5z" fill="#f3f3f1"/><path d="m9.31 12.742c.818-2.973 3.341-5.261 6.374-5.819.155-.029.308-.039.461-.058-.869-.121-1.778-.113-2.711.058-3.033.558-5.556 2.845-6.374 5.819-.82 2.981.084 5.794 1.878 7.767 1.17 1.287 1.812 3.002 1.812 4.741h2.25c0-1.739-.642-3.454-1.812-4.741-1.793-1.973-2.697-4.785-1.878-7.767z" fill="#00b871"/><path d="m19.5 6.75h-2.25c-.828 0-1.5.672-1.5 1.5v1.25h2.25v-1.25c0-.828.672-1.5 1.5-1.5z" fill="#00b871"/><path d="m13 27.25v-2h-2.25v2c0 1.105.895 2 2 2h2.25c-1.105 0-2-.895-2-2z" fill="#d5dbe1"/><path d="m18 16.75v-7.25h-2.25v7.25c0 .828.672 1.5 1.5 1.5h2.25c-.828 0-1.5-.672-1.5-1.5z" fill="#d5dbe1"/><path d="m27.75 19h-10.5c-1.24 0-2.25-1.009-2.25-2.25v-8.5c0-1.241 1.01-2.25 2.25-2.25h10.5c1.24 0 2.25 1.009 2.25 2.25v8.5c0 1.241-1.01 2.25-2.25 2.25zm-10.5-11.5c-.413 0-.75.336-.75.75v8.5c0 .414.337.75.75.75h10.5c.413 0 .75-.336.75-.75v-8.5c0-.414-.337-.75-.75-.75z"/><path d="m15.75 9h13.5v1.5h-13.5z"/><path d="m17.75 30h-5.5c-1.24 0-2.25-1.009-2.25-2.25v-2.27c0-1.631-.619-3.234-1.743-4.515-1.455-1.647-2.257-3.766-2.257-5.965 0-3.961 2.647-7.51 6.438-8.629l.426 1.438c-3.159.933-5.364 3.89-5.364 7.191 0 1.833.669 3.6 1.883 4.974 1.365 1.557 2.117 3.511 2.117 5.506v2.27c0 .414.337.75.75.75h5.5c.413 0 .75-.336.75-.75v-2.27c0-1.531.444-3.046 1.285-4.38l1.27.8c-.691 1.094-1.055 2.332-1.055 3.58v2.27c0 1.241-1.01 2.25-2.25 2.25z"/><path d="m10.75 24.5h8.5v1.5h-8.5z"/></svg>