<svg id="_x31__x2C_5" enable-background="new 0 0 36 36" height="512" viewBox="0 0 36 36" width="512" xmlns="http://www.w3.org/2000/svg"><path d="m27.623 4.167c-6.917 0-11.667-3.583-15-3.583s-10.333 1.916-10.333 17.249 9.417 17.583 13.083 17.583c17.167.001 24.5-31.249 12.25-31.249z" fill="#efefef"/><path d="m29.625 2.25h1v2h-1z" fill="#a4afc1"/><path d="m31.875 5.25h2v1h-2z" fill="#a4afc1"/><path d="m27.25 28.25h-18.5c-1.105 0-2-.895-2-2v-15h22.5v15c0 1.105-.895 2-2 2z" fill="#f3f3f1"/><path d="m6.75 11.25h22.5v-1.5c0-1.105-.895-2-2-2h-18.5c-1.105 0-2 .895-2 2z" fill="#2fdf84"/><path d="m11 7.75h-2.25c-1.105 0-2 .895-2 2v1.5h2.25v-1.5c0-1.105.895-2 2-2z" fill="#00b871"/><path d="m9 26.25v-15h-2.25v15c0 1.105.895 2 2 2h2.25c-1.105 0-2-.895-2-2z" fill="#d5dbe1"/><path d="m27.25 29h-18.5c-1.517 0-2.75-1.233-2.75-2.75v-16.5c0-1.517 1.233-2.75 2.75-2.75h18.5c1.517 0 2.75 1.233 2.75 2.75v16.5c0 1.517-1.233 2.75-2.75 2.75zm-18.5-20.5c-.689 0-1.25.561-1.25 1.25v16.5c0 .689.561 1.25 1.25 1.25h18.5c.689 0 1.25-.561 1.25-1.25v-16.5c0-.689-.561-1.25-1.25-1.25z"/><path d="m6.75 10.5h22.5v1.5h-22.5z"/><path d="m17.742 22.399c-.804 0-1.605-.311-2.217-.925l-3.107-3.126c-.591-.586-.918-1.374-.918-2.215s.327-1.629.922-2.219c1.145-1.17 3.238-1.185 4.422.003l.534.535-1.063 1.059-.534-.535c-.613-.615-1.701-.612-2.296-.005-.315.315-.485.725-.485 1.163s.17.848.479 1.154l3.109 3.129c.596.596 1.536.645 2.184.11l.952 1.16c-.581.477-1.283.712-1.982.712z"/><path d="m21.368 26c-.839 0-1.626-.328-2.215-.926l-.512-.514 1.063-1.059.515.517c.615.623 1.688.62 2.298.003.313-.312.483-.722.483-1.16s-.17-.848-.479-1.154l-3.109-3.129c-.306-.306-.717-.476-1.155-.476-.269 0-.666.063-1.026.362l-.958-1.154c1.185-.982 3.098-.895 4.202.209l3.107 3.127c.591.586.918 1.374.918 2.215s-.327 1.629-.922 2.219c-.583.592-1.37.92-2.21.92z"/></svg>