<svg id="_x31__x2C_5" enable-background="new 0 0 36 36" height="512" viewBox="0 0 36 36" width="512" xmlns="http://www.w3.org/2000/svg"><path d="m4.167 27.623c0-6.917-3.583-11.667-3.583-15s1.916-10.333 17.249-10.333 17.583 9.417 17.583 13.083c.001 17.167-31.249 24.5-31.249 12.25z" fill="#efefef"/><g fill="#a4afc1"><path d="m31.121 2.467h2v1h-2z" transform="matrix(.707 -.707 .707 .707 7.31 23.582)"/><path d="m27.379 1.967h1v2h-1z" transform="matrix(.707 -.707 .707 .707 6.071 20.586)"/><path d="m31.445 6.033h1v2h-1z" transform="matrix(.707 -.707 .707 .707 4.386 24.653)"/></g><path d="m27.25 28.25h-18.5c-1.105 0-2-.895-2-2v-15h22.5v15c0 1.105-.895 2-2 2z" fill="#f3f3f1"/><path d="m6.75 11.25h22.5v-1.5c0-1.105-.895-2-2-2h-18.5c-1.105 0-2 .895-2 2z" fill="#2fdf84"/><path d="m13.75 21.25v-3c0-.552.448-1 1-1h6.5c.552 0 1 .448 1 1v3c0 .552-.448 1-1 1h-6.5c-.552 0-1-.448-1-1z" fill="#2fdf84"/><path d="m11 7.75h-2.25c-1.105 0-2 .895-2 2v1.5h2.25v-1.5c0-1.105.895-2 2-2z" fill="#00b871"/><path d="m16 21.25v-3c0-.552.448-1 1-1h-2.25c-.552 0-1 .448-1 1v3c0 .552.448 1 1 1h2.25c-.552 0-1-.448-1-1z" fill="#00b871"/><path d="m9 26.25v-15h-2.25v15c0 1.105.895 2 2 2h2.25c-1.105 0-2-.895-2-2z" fill="#d5dbe1"/><path d="m21.25 23h-6.5c-.965 0-1.75-.785-1.75-1.75v-3c0-.965.785-1.75 1.75-1.75h6.5c.965 0 1.75.785 1.75 1.75v3c0 .965-.785 1.75-1.75 1.75zm-6.5-5c-.138 0-.25.112-.25.25v3c0 .138.112.25.25.25h6.5c.138 0 .25-.112.25-.25v-3c0-.138-.112-.25-.25-.25z"/><path d="m19.367 15.804-1.367-1.093-1.367 1.093-.937-1.171 1.835-1.469c.274-.219.663-.219.938 0l1.835 1.469z"/><path d="m18 26.5c-.166 0-.332-.055-.469-.164l-1.835-1.469.937-1.171 1.367 1.093 1.367-1.093.937 1.171-1.835 1.469c-.137.109-.303.164-.469.164z"/><path d="m27.25 29h-18.5c-1.517 0-2.75-1.233-2.75-2.75v-16.5c0-1.517 1.233-2.75 2.75-2.75h18.5c1.517 0 2.75 1.233 2.75 2.75v16.5c0 1.517-1.233 2.75-2.75 2.75zm-18.5-20.5c-.689 0-1.25.561-1.25 1.25v16.5c0 .689.561 1.25 1.25 1.25h18.5c.689 0 1.25-.561 1.25-1.25v-16.5c0-.689-.561-1.25-1.25-1.25z"/><path d="m6.75 10.5h22.5v1.5h-22.5z"/></svg>