<svg id="_x31__x2C_5" enable-background="new 0 0 36 36" height="512" viewBox="0 0 36 36" width="512" xmlns="http://www.w3.org/2000/svg"><path d="m8.377 31.833c6.917 0 11.667 3.583 15 3.583s10.333-1.916 10.333-17.249-9.417-17.584-13.083-17.584c-17.167 0-24.5 31.25-12.25 31.25z" fill="#efefef"/><path d="m25.5 5c-.827 0-1.5-.673-1.5-1.5s.673-1.5 1.5-1.5 1.5.673 1.5 1.5-.673 1.5-1.5 1.5zm0-2c-.276 0-.5.224-.5.5s.224.5.5.5.5-.224.5-.5-.224-.5-.5-.5z" fill="#a4afc1"/><path d="m19.75 26.25s.245 1.765 1.48 3h.02-6.5c1.25-1.25 1.48-3 1.48-3z" fill="#2fdf84"/><path d="m28.25 10.75c.55 0 1 .45 1 1v11h-22.5v-11c0-.55.45-1 1-1z" fill="#f3f3f1"/><path d="m7.75 26.25h20.5c.552 0 1-.448 1-1v-2.5h-22.5v2.5c0 .552.448 1 1 1z" fill="#2fdf84"/><path d="m6.75 9.5h12.5v-1.25c0-.828-.672-1.5-1.5-1.5h-9.5c-.828 0-1.5.672-1.5 1.5z" fill="#2fdf84"/><path d="m8.25 16.75h9.5c.828 0 1.5-.672 1.5-1.5v-5.75h-12.5v5.75c0 .828.672 1.5 1.5 1.5z" fill="#f3f3f1"/><g fill="#00b871"><path d="m16.23 26.25s-.23 1.75-1.48 3h2.25c1.25-1.25 1.48-3 1.48-3z"/><path d="m9 25.25v-2.5h-2.25v2.5c0 .552.448 1 1 1h2.25c-.552 0-1-.448-1-1z"/><path d="m10.5 6.75h-2.25c-.828 0-1.5.672-1.5 1.5v1.25h2.25v-1.25c0-.828.672-1.5 1.5-1.5z"/></g><path d="m9 16.75v6h-2.25v-7z" fill="#d5dbe1"/><path d="m9 15.25v-5.75h-2.25v5.75c0 .828.672 1.5 1.5 1.5h2.25c-.828 0-1.5-.672-1.5-1.5z" fill="#d5dbe1"/><path d="m17.75 17.5h-9.5c-1.241 0-2.25-1.009-2.25-2.25v-7c0-1.241 1.009-2.25 2.25-2.25h9.5c1.241 0 2.25 1.009 2.25 2.25v7c0 1.241-1.009 2.25-2.25 2.25zm-9.5-10c-.414 0-.75.336-.75.75v7c0 .414.336.75.75.75h9.5c.414 0 .75-.336.75-.75v-7c0-.414-.336-.75-.75-.75z"/><path d="m6.75 8.985h12.5v1.5h-12.5z"/><path d="m28.25 27h-20.5c-.965 0-1.75-.785-1.75-1.75v-6.25h1.5v6.25c0 .136.114.25.25.25h20.5c.136 0 .25-.114.25-.25v-13.5c0-.136-.114-.25-.25-.25h-6.25v-1.5h6.25c.965 0 1.75.785 1.75 1.75v13.5c0 .965-.785 1.75-1.75 1.75z"/><path d="m6.75 22h22.5v1.5h-22.5z"/><path d="m21.25 30h-6.5c-.303 0-.577-.183-.693-.463s-.052-.603.163-.817c1.041-1.041 1.265-2.552 1.267-2.567l1.487.195c-.008.059-.147 1.066-.744 2.152h3.523c-.591-1.081-.738-2.088-.746-2.147l1.485-.208c.002.015.221 1.458 1.184 2.489.196.135.324.36.324.616 0 .414-.336.75-.75.75z"/><path d="m23.376 15.473h1.5v5.303h-1.5z" transform="matrix(.707 -.707 .707 .707 -5.75 22.368)"/><path d="m26.25 21h-3.25v-1.5h2.5v-2.5h1.5v3.25c0 .414-.336.75-.75.75z"/></svg>