<svg id="_x31__x2C_5" enable-background="new 0 0 36 36" height="512" viewBox="0 0 36 36" width="512" xmlns="http://www.w3.org/2000/svg"><path d="m27.623 31.833c-6.917 0-11.667 3.583-15 3.583s-10.333-1.916-10.333-17.249 9.417-17.584 13.083-17.584c17.167 0 24.5 31.25 12.25 31.25z" fill="#efefef"/><g fill="#a4afc1"><path d="m6.033 2.467h2v1h-2z" transform="matrix(.707 -.707 .707 .707 -.038 5.842)"/><path d="m1.967 6.533h2v1h-2z" transform="matrix(.707 -.707 .707 .707 -4.104 4.158)"/><path d="m2.644 1.967h1v2h-1z" transform="matrix(.707 -.707 .707 .707 -1.177 3.091)"/></g><path d="m27.25 27.25h-18.5c-1.105 0-2-.895-2-2v-15h22.5v15c0 1.105-.895 2-2 2z" fill="#f3f3f1"/><path d="m6.75 10.25h22.5v-1.5c0-1.105-.895-2-2-2h-18.5c-1.105 0-2 .895-2 2z" fill="#2fdf84"/><path d="m6.75 27.75c0 .828.672 1.5 1.5 1.5h6.5c.828 0 1.5-.672 1.5-1.5v-13.5c0-.828-.672-1.5-1.5-1.5h-6.5c-.828 0-1.5.672-1.5 1.5z" fill="#f3f3f1"/><path d="m14.75 12.75c-.552 0-1 .448-1 1 0 .552-.448 1-1 1h-2.5c-.552 0-1-.448-1-1 0-.552-.448-1-1-1z" fill="#2fdf84"/><path d="m11 6.75h-2.25c-1.105 0-2 .895-2 2v1.5h2.25v-1.5c0-1.105.895-2 2-2z" fill="#00b871"/><path d="m11.5 13.75c0-.552-.448-1-1-1h-2.25c.552 0 1 .448 1 1s.448 1 1 1h2.25c-.552 0-1-.448-1-1z" fill="#00b871"/><path d="m9 27.75v-13.5c0-.828.672-1.5 1.5-1.5h-2.25c-.828 0-1.5.672-1.5 1.5v13.5c0 .828.672 1.5 1.5 1.5h2.25c-.828 0-1.5-.672-1.5-1.5z" fill="#d5dbe1"/><path d="m9 10.25v2.25l-2.25 1v-3.25z" fill="#d5dbe1"/><path d="m12.75 15.5h-2.5c-.965 0-1.75-.785-1.75-1.75 0-.138-.112-.25-.25-.25v-1.5c.965 0 1.75.785 1.75 1.75 0 .138.112.25.25.25h2.5c.138 0 .25-.112.25-.25 0-.965.785-1.75 1.75-1.75v1.5c-.138 0-.25.112-.25.25 0 .965-.785 1.75-1.75 1.75z"/><path d="m14.75 30h-6.5c-1.24 0-2.25-1.009-2.25-2.25v-13.5c0-1.241 1.01-2.25 2.25-2.25h6.5c1.24 0 2.25 1.009 2.25 2.25v13.5c0 1.241-1.01 2.25-2.25 2.25zm-6.5-16.5c-.413 0-.75.336-.75.75v13.5c0 .414.337.75.75.75h6.5c.413 0 .75-.336.75-.75v-13.5c0-.414-.337-.75-.75-.75z"/><path d="m27.25 28h-8.25v-1.5h8.25c.689 0 1.25-.561 1.25-1.25v-16.5c0-.689-.561-1.25-1.25-1.25h-18.5c-.689 0-1.25.561-1.25 1.25v1.25h-1.5v-1.25c0-1.517 1.233-2.75 2.75-2.75h18.5c1.517 0 2.75 1.233 2.75 2.75v16.5c0 1.517-1.233 2.75-2.75 2.75z"/><path d="m17 9.5h12.25v1.5h-12.25z"/><path d="m20.223 17.375h5.303v1.5h-5.303z" transform="matrix(.707 -.707 .707 .707 -6.116 21.484)"/><path d="m24 21h-3.25c-.414 0-.75-.336-.75-.75v-3.25h1.5v2.5h2.5z"/></svg>