<svg id="_x31__x2C_5" enable-background="new 0 0 36 36" height="512" viewBox="0 0 36 36" width="512" xmlns="http://www.w3.org/2000/svg"><path d="m8.377 4.167c6.917 0 11.667-3.583 15-3.583s10.333 1.916 10.333 17.249-9.417 17.583-13.083 17.583c-17.167.001-24.5-31.249-12.25-31.249z" fill="#efefef"/><path d="m32.5 6c-.827 0-1.5-.673-1.5-1.5s.673-1.5 1.5-1.5 1.5.673 1.5 1.5-.673 1.5-1.5 1.5zm0-2c-.275 0-.5.225-.5.5s.225.5.5.5.5-.225.5-.5-.225-.5-.5-.5z" fill="#a4afc1"/><path d="m27.25 28.25h-18.5c-1.105 0-2-.895-2-2v-15h22.5v15c0 1.105-.895 2-2 2z" fill="#f3f3f1"/><path d="m6.75 11.25h22.5v-1.5c0-1.105-.895-2-2-2h-18.5c-1.105 0-2 .895-2 2z" fill="#2fdf84"/><path d="m26.25 20c-1.881 3.29-4.962 5.25-8.25 5.25s-6.369-1.96-8.25-5.25c1.881-3.29 4.962-5.25 8.25-5.25s6.369 1.96 8.25 5.25z" fill="#f3f3f1"/><circle cx="18" cy="20" fill="#2fdf84" r="2.25"/><path d="m11 7.75h-2.25c-1.105 0-2 .895-2 2v1.5h2.25v-1.5c0-1.105.895-2 2-2z" fill="#00b871"/><path d="m18 20c0-.831.455-1.548 1.125-1.938-.332-.193-.713-.312-1.125-.312-1.243 0-2.25 1.007-2.25 2.25s1.007 2.25 2.25 2.25c.412 0 .793-.119 1.125-.312-.67-.39-1.125-1.107-1.125-1.938z" fill="#00b871"/><path d="m9 26.25v-15h-2.25v15c0 1.105.895 2 2 2h2.25c-1.105 0-2-.895-2-2z" fill="#d5dbe1"/><path d="m12 20c1.665-2.911 4.269-4.774 7.125-5.167-.372-.051-.746-.083-1.125-.083-3.288 0-6.369 1.96-8.25 5.25 1.881 3.29 4.962 5.25 8.25 5.25.379 0 .753-.032 1.125-.083-2.856-.393-5.46-2.256-7.125-5.167z" fill="#d5dbe1"/><path d="m18 23c-1.654 0-3-1.346-3-3s1.346-3 3-3 3 1.346 3 3-1.346 3-3 3zm0-4.5c-.827 0-1.5.673-1.5 1.5s.673 1.5 1.5 1.5 1.5-.673 1.5-1.5-.673-1.5-1.5-1.5z"/><path d="m18 26c-3.559 0-6.887-2.104-8.901-5.628-.132-.23-.132-.514 0-.744 2.014-3.524 5.342-5.628 8.901-5.628s6.887 2.104 8.901 5.628c.132.23.132.514 0 .744-2.014 3.524-5.342 5.628-8.901 5.628zm-7.377-6c1.758 2.826 4.487 4.5 7.377 4.5s5.619-1.674 7.377-4.5c-1.758-2.826-4.487-4.5-7.377-4.5s-5.619 1.674-7.377 4.5z"/><path d="m27.25 29h-18.5c-1.517 0-2.75-1.233-2.75-2.75v-16.5c0-1.517 1.233-2.75 2.75-2.75h18.5c1.517 0 2.75 1.233 2.75 2.75v16.5c0 1.517-1.233 2.75-2.75 2.75zm-18.5-20.5c-.689 0-1.25.561-1.25 1.25v16.5c0 .689.561 1.25 1.25 1.25h18.5c.689 0 1.25-.561 1.25-1.25v-16.5c0-.689-.561-1.25-1.25-1.25z"/><path d="m6.75 10.5h22.5v1.5h-22.5z"/></svg>